<mxfile host="app.diagrams.net" modified="2022-08-25T13:41:17.304Z" agent="5.0 (Windows NT 10.0; Win64; x64) AppleWebKit/537.36 (KHTML, like Gecko) Chrome/104.0.0.0 Safari/537.36" etag="8_M6-tf1Yh2Mwkzpy99E" version="20.2.7" type="github">
  <diagram id="EHc50LfEKSvHZqRBYvht" name="第 1 页">
    <mxGraphModel dx="1008" dy="618" grid="1" gridSize="10" guides="1" tooltips="1" connect="1" arrows="1" fold="1" page="1" pageScale="1" pageWidth="827" pageHeight="1169" math="0" shadow="0">
      <root>
        <mxCell id="0" />
        <mxCell id="1" parent="0" />
        <mxCell id="CahL7AirRAyiVEByeSwV-1" value="struct timer_list       oom_reaper_timer;" style="swimlane;fontStyle=0;childLayout=stackLayout;horizontal=1;startSize=30;fillColor=none;horizontalStack=0;resizeParent=1;resizeParentMax=0;resizeLast=0;collapsible=1;marginBottom=0;" vertex="1" parent="1">
          <mxGeometry x="40" y="40" width="400" height="5910" as="geometry" />
        </mxCell>
        <mxCell id="CahL7AirRAyiVEByeSwV-2" value="struct thread_info      thread_info;" style="text;strokeColor=default;fillColor=none;align=left;verticalAlign=middle;spacingLeft=4;spacingRight=4;overflow=hidden;rotatable=0;points=[[0,0.5],[1,0.5]];portConstraint=eastwest;" vertex="1" parent="CahL7AirRAyiVEByeSwV-1">
          <mxGeometry y="30" width="400" height="20" as="geometry" />
        </mxCell>
        <mxCell id="CahL7AirRAyiVEByeSwV-3" value="unsigned int            __state;" style="text;strokeColor=default;fillColor=none;align=left;verticalAlign=middle;spacingLeft=4;spacingRight=4;overflow=hidden;rotatable=0;points=[[0,0.5],[1,0.5]];portConstraint=eastwest;" vertex="1" parent="CahL7AirRAyiVEByeSwV-1">
          <mxGeometry y="50" width="400" height="20" as="geometry" />
        </mxCell>
        <mxCell id="CahL7AirRAyiVEByeSwV-4" value="unsigned int            saved_state;" style="text;strokeColor=default;fillColor=none;align=left;verticalAlign=middle;spacingLeft=4;spacingRight=4;overflow=hidden;rotatable=0;points=[[0,0.5],[1,0.5]];portConstraint=eastwest;" vertex="1" parent="CahL7AirRAyiVEByeSwV-1">
          <mxGeometry y="70" width="400" height="20" as="geometry" />
        </mxCell>
        <mxCell id="CahL7AirRAyiVEByeSwV-6" value="randomized_struct fields_start" style="text;strokeColor=default;fillColor=none;align=left;verticalAlign=middle;spacingLeft=4;spacingRight=4;overflow=hidden;rotatable=0;points=[[0,0.5],[1,0.5]];portConstraint=eastwest;" vertex="1" parent="CahL7AirRAyiVEByeSwV-1">
          <mxGeometry y="90" width="400" height="20" as="geometry" />
        </mxCell>
        <mxCell id="CahL7AirRAyiVEByeSwV-10" value="void                *stack;" style="text;strokeColor=default;fillColor=none;align=left;verticalAlign=middle;spacingLeft=4;spacingRight=4;overflow=hidden;rotatable=0;points=[[0,0.5],[1,0.5]];portConstraint=eastwest;" vertex="1" parent="CahL7AirRAyiVEByeSwV-1">
          <mxGeometry y="110" width="400" height="20" as="geometry" />
        </mxCell>
        <mxCell id="CahL7AirRAyiVEByeSwV-13" value="refcount_t          usage;" style="text;strokeColor=default;fillColor=none;align=left;verticalAlign=middle;spacingLeft=4;spacingRight=4;overflow=hidden;rotatable=0;points=[[0,0.5],[1,0.5]];portConstraint=eastwest;" vertex="1" parent="CahL7AirRAyiVEByeSwV-1">
          <mxGeometry y="130" width="400" height="20" as="geometry" />
        </mxCell>
        <mxCell id="CahL7AirRAyiVEByeSwV-14" value="unsigned int            flags;" style="text;strokeColor=default;fillColor=none;align=left;verticalAlign=middle;spacingLeft=4;spacingRight=4;overflow=hidden;rotatable=0;points=[[0,0.5],[1,0.5]];portConstraint=eastwest;" vertex="1" parent="CahL7AirRAyiVEByeSwV-1">
          <mxGeometry y="150" width="400" height="20" as="geometry" />
        </mxCell>
        <mxCell id="CahL7AirRAyiVEByeSwV-15" value="unsigned int            ptrace;" style="text;strokeColor=default;fillColor=none;align=left;verticalAlign=middle;spacingLeft=4;spacingRight=4;overflow=hidden;rotatable=0;points=[[0,0.5],[1,0.5]];portConstraint=eastwest;" vertex="1" parent="CahL7AirRAyiVEByeSwV-1">
          <mxGeometry y="170" width="400" height="20" as="geometry" />
        </mxCell>
        <mxCell id="CahL7AirRAyiVEByeSwV-16" value="int             on_cpu;" style="text;strokeColor=default;fillColor=none;align=left;verticalAlign=middle;spacingLeft=4;spacingRight=4;overflow=hidden;rotatable=0;points=[[0,0.5],[1,0.5]];portConstraint=eastwest;" vertex="1" parent="CahL7AirRAyiVEByeSwV-1">
          <mxGeometry y="190" width="400" height="20" as="geometry" />
        </mxCell>
        <mxCell id="CahL7AirRAyiVEByeSwV-19" value="struct __call_single_node   wake_entry;" style="text;strokeColor=default;fillColor=none;align=left;verticalAlign=middle;spacingLeft=4;spacingRight=4;overflow=hidden;rotatable=0;points=[[0,0.5],[1,0.5]];portConstraint=eastwest;" vertex="1" parent="CahL7AirRAyiVEByeSwV-1">
          <mxGeometry y="210" width="400" height="20" as="geometry" />
        </mxCell>
        <mxCell id="CahL7AirRAyiVEByeSwV-21" value="unsigned int            wakee_flips;" style="text;strokeColor=default;fillColor=none;align=left;verticalAlign=middle;spacingLeft=4;spacingRight=4;overflow=hidden;rotatable=0;points=[[0,0.5],[1,0.5]];portConstraint=eastwest;" vertex="1" parent="CahL7AirRAyiVEByeSwV-1">
          <mxGeometry y="230" width="400" height="20" as="geometry" />
        </mxCell>
        <mxCell id="CahL7AirRAyiVEByeSwV-22" value="unsigned long           wakee_flip_decay_ts;" style="text;strokeColor=default;fillColor=none;align=left;verticalAlign=middle;spacingLeft=4;spacingRight=4;overflow=hidden;rotatable=0;points=[[0,0.5],[1,0.5]];portConstraint=eastwest;" vertex="1" parent="CahL7AirRAyiVEByeSwV-1">
          <mxGeometry y="250" width="400" height="20" as="geometry" />
        </mxCell>
        <mxCell id="CahL7AirRAyiVEByeSwV-23" value="struct task_struct      *last_wakee;" style="text;strokeColor=default;fillColor=none;align=left;verticalAlign=middle;spacingLeft=4;spacingRight=4;overflow=hidden;rotatable=0;points=[[0,0.5],[1,0.5]];portConstraint=eastwest;" vertex="1" parent="CahL7AirRAyiVEByeSwV-1">
          <mxGeometry y="270" width="400" height="20" as="geometry" />
        </mxCell>
        <mxCell id="CahL7AirRAyiVEByeSwV-25" value="int             recent_used_cpu;" style="text;strokeColor=default;fillColor=none;align=left;verticalAlign=middle;spacingLeft=4;spacingRight=4;overflow=hidden;rotatable=0;points=[[0,0.5],[1,0.5]];portConstraint=eastwest;" vertex="1" parent="CahL7AirRAyiVEByeSwV-1">
          <mxGeometry y="290" width="400" height="20" as="geometry" />
        </mxCell>
        <mxCell id="CahL7AirRAyiVEByeSwV-26" value="int             wake_cpu;" style="text;strokeColor=default;fillColor=none;align=left;verticalAlign=middle;spacingLeft=4;spacingRight=4;overflow=hidden;rotatable=0;points=[[0,0.5],[1,0.5]];portConstraint=eastwest;" vertex="1" parent="CahL7AirRAyiVEByeSwV-1">
          <mxGeometry y="310" width="400" height="20" as="geometry" />
        </mxCell>
        <mxCell id="CahL7AirRAyiVEByeSwV-27" value="int             on_rq;" style="text;strokeColor=default;fillColor=none;align=left;verticalAlign=middle;spacingLeft=4;spacingRight=4;overflow=hidden;rotatable=0;points=[[0,0.5],[1,0.5]];portConstraint=eastwest;" vertex="1" parent="CahL7AirRAyiVEByeSwV-1">
          <mxGeometry y="330" width="400" height="20" as="geometry" />
        </mxCell>
        <mxCell id="CahL7AirRAyiVEByeSwV-28" value="int             prio;" style="text;strokeColor=default;fillColor=none;align=left;verticalAlign=middle;spacingLeft=4;spacingRight=4;overflow=hidden;rotatable=0;points=[[0,0.5],[1,0.5]];portConstraint=eastwest;" vertex="1" parent="CahL7AirRAyiVEByeSwV-1">
          <mxGeometry y="350" width="400" height="20" as="geometry" />
        </mxCell>
        <mxCell id="CahL7AirRAyiVEByeSwV-29" value="int             static_prio;" style="text;strokeColor=default;fillColor=none;align=left;verticalAlign=middle;spacingLeft=4;spacingRight=4;overflow=hidden;rotatable=0;points=[[0,0.5],[1,0.5]];portConstraint=eastwest;" vertex="1" parent="CahL7AirRAyiVEByeSwV-1">
          <mxGeometry y="370" width="400" height="20" as="geometry" />
        </mxCell>
        <mxCell id="CahL7AirRAyiVEByeSwV-30" value="int             normal_prio;" style="text;strokeColor=default;fillColor=none;align=left;verticalAlign=middle;spacingLeft=4;spacingRight=4;overflow=hidden;rotatable=0;points=[[0,0.5],[1,0.5]];portConstraint=eastwest;" vertex="1" parent="CahL7AirRAyiVEByeSwV-1">
          <mxGeometry y="390" width="400" height="20" as="geometry" />
        </mxCell>
        <mxCell id="CahL7AirRAyiVEByeSwV-31" value="unsigned int            rt_priority;" style="text;strokeColor=default;fillColor=none;align=left;verticalAlign=middle;spacingLeft=4;spacingRight=4;overflow=hidden;rotatable=0;points=[[0,0.5],[1,0.5]];portConstraint=eastwest;" vertex="1" parent="CahL7AirRAyiVEByeSwV-1">
          <mxGeometry y="410" width="400" height="20" as="geometry" />
        </mxCell>
        <mxCell id="CahL7AirRAyiVEByeSwV-32" value="struct sched_entity     se;" style="text;strokeColor=default;fillColor=none;align=left;verticalAlign=middle;spacingLeft=4;spacingRight=4;overflow=hidden;rotatable=0;points=[[0,0.5],[1,0.5]];portConstraint=eastwest;" vertex="1" parent="CahL7AirRAyiVEByeSwV-1">
          <mxGeometry y="430" width="400" height="20" as="geometry" />
        </mxCell>
        <mxCell id="CahL7AirRAyiVEByeSwV-33" value="struct sched_rt_entity      rt;" style="text;strokeColor=default;fillColor=none;align=left;verticalAlign=middle;spacingLeft=4;spacingRight=4;overflow=hidden;rotatable=0;points=[[0,0.5],[1,0.5]];portConstraint=eastwest;" vertex="1" parent="CahL7AirRAyiVEByeSwV-1">
          <mxGeometry y="450" width="400" height="20" as="geometry" />
        </mxCell>
        <mxCell id="CahL7AirRAyiVEByeSwV-34" value="struct sched_dl_entity      dl;" style="text;strokeColor=default;fillColor=none;align=left;verticalAlign=middle;spacingLeft=4;spacingRight=4;overflow=hidden;rotatable=0;points=[[0,0.5],[1,0.5]];portConstraint=eastwest;" vertex="1" parent="CahL7AirRAyiVEByeSwV-1">
          <mxGeometry y="470" width="400" height="20" as="geometry" />
        </mxCell>
        <mxCell id="CahL7AirRAyiVEByeSwV-35" value="const struct sched_class    *sched_class;" style="text;strokeColor=default;fillColor=none;align=left;verticalAlign=middle;spacingLeft=4;spacingRight=4;overflow=hidden;rotatable=0;points=[[0,0.5],[1,0.5]];portConstraint=eastwest;" vertex="1" parent="CahL7AirRAyiVEByeSwV-1">
          <mxGeometry y="490" width="400" height="20" as="geometry" />
        </mxCell>
        <mxCell id="CahL7AirRAyiVEByeSwV-45" value="struct rb_node          core_node;" style="text;strokeColor=default;fillColor=none;align=left;verticalAlign=middle;spacingLeft=4;spacingRight=4;overflow=hidden;rotatable=0;points=[[0,0.5],[1,0.5]];portConstraint=eastwest;" vertex="1" parent="CahL7AirRAyiVEByeSwV-1">
          <mxGeometry y="510" width="400" height="20" as="geometry" />
        </mxCell>
        <mxCell id="CahL7AirRAyiVEByeSwV-47" value="unsigned long           core_cookie;" style="text;strokeColor=default;fillColor=none;align=left;verticalAlign=middle;spacingLeft=4;spacingRight=4;overflow=hidden;rotatable=0;points=[[0,0.5],[1,0.5]];portConstraint=eastwest;" vertex="1" parent="CahL7AirRAyiVEByeSwV-1">
          <mxGeometry y="530" width="400" height="20" as="geometry" />
        </mxCell>
        <mxCell id="CahL7AirRAyiVEByeSwV-48" value="unsigned int            core_occupation;" style="text;strokeColor=default;fillColor=none;align=left;verticalAlign=middle;spacingLeft=4;spacingRight=4;overflow=hidden;rotatable=0;points=[[0,0.5],[1,0.5]];portConstraint=eastwest;" vertex="1" parent="CahL7AirRAyiVEByeSwV-1">
          <mxGeometry y="550" width="400" height="20" as="geometry" />
        </mxCell>
        <mxCell id="CahL7AirRAyiVEByeSwV-49" value="struct task_group       *sched_task_group;" style="text;strokeColor=default;fillColor=none;align=left;verticalAlign=middle;spacingLeft=4;spacingRight=4;overflow=hidden;rotatable=0;points=[[0,0.5],[1,0.5]];portConstraint=eastwest;" vertex="1" parent="CahL7AirRAyiVEByeSwV-1">
          <mxGeometry y="570" width="400" height="20" as="geometry" />
        </mxCell>
        <mxCell id="CahL7AirRAyiVEByeSwV-50" value="struct uclamp_se        uclamp_req[UCLAMP_CNT];" style="text;strokeColor=default;fillColor=none;align=left;verticalAlign=middle;spacingLeft=4;spacingRight=4;overflow=hidden;rotatable=0;points=[[0,0.5],[1,0.5]];portConstraint=eastwest;" vertex="1" parent="CahL7AirRAyiVEByeSwV-1">
          <mxGeometry y="590" width="400" height="20" as="geometry" />
        </mxCell>
        <mxCell id="CahL7AirRAyiVEByeSwV-52" value="struct uclamp_se        uclamp[UCLAMP_CNT];" style="text;strokeColor=default;fillColor=none;align=left;verticalAlign=middle;spacingLeft=4;spacingRight=4;overflow=hidden;rotatable=0;points=[[0,0.5],[1,0.5]];portConstraint=eastwest;" vertex="1" parent="CahL7AirRAyiVEByeSwV-1">
          <mxGeometry y="610" width="400" height="20" as="geometry" />
        </mxCell>
        <mxCell id="CahL7AirRAyiVEByeSwV-54" value="struct sched_statistics         stats;" style="text;strokeColor=default;fillColor=none;align=left;verticalAlign=middle;spacingLeft=4;spacingRight=4;overflow=hidden;rotatable=0;points=[[0,0.5],[1,0.5]];portConstraint=eastwest;" vertex="1" parent="CahL7AirRAyiVEByeSwV-1">
          <mxGeometry y="630" width="400" height="20" as="geometry" />
        </mxCell>
        <mxCell id="CahL7AirRAyiVEByeSwV-56" value="struct hlist_head       preempt_notifiers;" style="text;strokeColor=default;fillColor=none;align=left;verticalAlign=middle;spacingLeft=4;spacingRight=4;overflow=hidden;rotatable=0;points=[[0,0.5],[1,0.5]];portConstraint=eastwest;" vertex="1" parent="CahL7AirRAyiVEByeSwV-1">
          <mxGeometry y="650" width="400" height="20" as="geometry" />
        </mxCell>
        <mxCell id="CahL7AirRAyiVEByeSwV-58" value="unsigned int            btrace_seq;" style="text;strokeColor=default;fillColor=none;align=left;verticalAlign=middle;spacingLeft=4;spacingRight=4;overflow=hidden;rotatable=0;points=[[0,0.5],[1,0.5]];portConstraint=eastwest;" vertex="1" parent="CahL7AirRAyiVEByeSwV-1">
          <mxGeometry y="670" width="400" height="20" as="geometry" />
        </mxCell>
        <mxCell id="CahL7AirRAyiVEByeSwV-59" value="unsigned int            policy;" style="text;strokeColor=default;fillColor=none;align=left;verticalAlign=middle;spacingLeft=4;spacingRight=4;overflow=hidden;rotatable=0;points=[[0,0.5],[1,0.5]];portConstraint=eastwest;" vertex="1" parent="CahL7AirRAyiVEByeSwV-1">
          <mxGeometry y="690" width="400" height="20" as="geometry" />
        </mxCell>
        <mxCell id="CahL7AirRAyiVEByeSwV-60" value="int             nr_cpus_allowed;" style="text;strokeColor=default;fillColor=none;align=left;verticalAlign=middle;spacingLeft=4;spacingRight=4;overflow=hidden;rotatable=0;points=[[0,0.5],[1,0.5]];portConstraint=eastwest;" vertex="1" parent="CahL7AirRAyiVEByeSwV-1">
          <mxGeometry y="710" width="400" height="20" as="geometry" />
        </mxCell>
        <mxCell id="CahL7AirRAyiVEByeSwV-61" value="const cpumask_t         *cpus_ptr;" style="text;strokeColor=default;fillColor=none;align=left;verticalAlign=middle;spacingLeft=4;spacingRight=4;overflow=hidden;rotatable=0;points=[[0,0.5],[1,0.5]];portConstraint=eastwest;" vertex="1" parent="CahL7AirRAyiVEByeSwV-1">
          <mxGeometry y="730" width="400" height="20" as="geometry" />
        </mxCell>
        <mxCell id="CahL7AirRAyiVEByeSwV-62" value="cpumask_t           *user_cpus_ptr;" style="text;strokeColor=default;fillColor=none;align=left;verticalAlign=middle;spacingLeft=4;spacingRight=4;overflow=hidden;rotatable=0;points=[[0,0.5],[1,0.5]];portConstraint=eastwest;" vertex="1" parent="CahL7AirRAyiVEByeSwV-1">
          <mxGeometry y="750" width="400" height="20" as="geometry" />
        </mxCell>
        <mxCell id="CahL7AirRAyiVEByeSwV-63" value="cpumask_t           cpus_mask;" style="text;strokeColor=default;fillColor=none;align=left;verticalAlign=middle;spacingLeft=4;spacingRight=4;overflow=hidden;rotatable=0;points=[[0,0.5],[1,0.5]];portConstraint=eastwest;" vertex="1" parent="CahL7AirRAyiVEByeSwV-1">
          <mxGeometry y="770" width="400" height="20" as="geometry" />
        </mxCell>
        <mxCell id="CahL7AirRAyiVEByeSwV-67" value="void                *migration_pending;" style="text;strokeColor=default;fillColor=none;align=left;verticalAlign=middle;spacingLeft=4;spacingRight=4;overflow=hidden;rotatable=0;points=[[0,0.5],[1,0.5]];portConstraint=eastwest;" vertex="1" parent="CahL7AirRAyiVEByeSwV-1">
          <mxGeometry y="790" width="400" height="20" as="geometry" />
        </mxCell>
        <mxCell id="CahL7AirRAyiVEByeSwV-68" value="unsigned short          migration_disabled;" style="text;strokeColor=default;fillColor=none;align=left;verticalAlign=middle;spacingLeft=4;spacingRight=4;overflow=hidden;rotatable=0;points=[[0,0.5],[1,0.5]];portConstraint=eastwest;" vertex="1" parent="CahL7AirRAyiVEByeSwV-1">
          <mxGeometry y="810" width="400" height="20" as="geometry" />
        </mxCell>
        <mxCell id="CahL7AirRAyiVEByeSwV-69" value="unsigned short          migration_flags;" style="text;strokeColor=default;fillColor=none;align=left;verticalAlign=middle;spacingLeft=4;spacingRight=4;overflow=hidden;rotatable=0;points=[[0,0.5],[1,0.5]];portConstraint=eastwest;" vertex="1" parent="CahL7AirRAyiVEByeSwV-1">
          <mxGeometry y="830" width="400" height="20" as="geometry" />
        </mxCell>
        <mxCell id="CahL7AirRAyiVEByeSwV-70" value="int             rcu_read_lock_nesting;" style="text;strokeColor=default;fillColor=none;align=left;verticalAlign=middle;spacingLeft=4;spacingRight=4;overflow=hidden;rotatable=0;points=[[0,0.5],[1,0.5]];portConstraint=eastwest;" vertex="1" parent="CahL7AirRAyiVEByeSwV-1">
          <mxGeometry y="850" width="400" height="20" as="geometry" />
        </mxCell>
        <mxCell id="CahL7AirRAyiVEByeSwV-71" value="union rcu_special       rcu_read_unlock_special;" style="text;strokeColor=default;fillColor=none;align=left;verticalAlign=middle;spacingLeft=4;spacingRight=4;overflow=hidden;rotatable=0;points=[[0,0.5],[1,0.5]];portConstraint=eastwest;" vertex="1" parent="CahL7AirRAyiVEByeSwV-1">
          <mxGeometry y="870" width="400" height="20" as="geometry" />
        </mxCell>
        <mxCell id="CahL7AirRAyiVEByeSwV-72" value="struct list_head        rcu_node_entry;" style="text;strokeColor=default;fillColor=none;align=left;verticalAlign=middle;spacingLeft=4;spacingRight=4;overflow=hidden;rotatable=0;points=[[0,0.5],[1,0.5]];portConstraint=eastwest;" vertex="1" parent="CahL7AirRAyiVEByeSwV-1">
          <mxGeometry y="890" width="400" height="20" as="geometry" />
        </mxCell>
        <mxCell id="CahL7AirRAyiVEByeSwV-75" value="struct rcu_node         *rcu_blocked_node;" style="text;strokeColor=default;fillColor=none;align=left;verticalAlign=middle;spacingLeft=4;spacingRight=4;overflow=hidden;rotatable=0;points=[[0,0.5],[1,0.5]];portConstraint=eastwest;" vertex="1" parent="CahL7AirRAyiVEByeSwV-1">
          <mxGeometry y="910" width="400" height="20" as="geometry" />
        </mxCell>
        <mxCell id="CahL7AirRAyiVEByeSwV-77" value="unsigned long           rcu_tasks_nvcsw;" style="text;strokeColor=default;fillColor=none;align=left;verticalAlign=middle;spacingLeft=4;spacingRight=4;overflow=hidden;rotatable=0;points=[[0,0.5],[1,0.5]];portConstraint=eastwest;" vertex="1" parent="CahL7AirRAyiVEByeSwV-1">
          <mxGeometry y="930" width="400" height="20" as="geometry" />
        </mxCell>
        <mxCell id="CahL7AirRAyiVEByeSwV-78" value="u8              rcu_tasks_holdout;" style="text;strokeColor=default;fillColor=none;align=left;verticalAlign=middle;spacingLeft=4;spacingRight=4;overflow=hidden;rotatable=0;points=[[0,0.5],[1,0.5]];portConstraint=eastwest;" vertex="1" parent="CahL7AirRAyiVEByeSwV-1">
          <mxGeometry y="950" width="400" height="20" as="geometry" />
        </mxCell>
        <mxCell id="CahL7AirRAyiVEByeSwV-79" value="u8              rcu_tasks_idx;" style="text;strokeColor=default;fillColor=none;align=left;verticalAlign=middle;spacingLeft=4;spacingRight=4;overflow=hidden;rotatable=0;points=[[0,0.5],[1,0.5]];portConstraint=eastwest;" vertex="1" parent="CahL7AirRAyiVEByeSwV-1">
          <mxGeometry y="970" width="400" height="20" as="geometry" />
        </mxCell>
        <mxCell id="CahL7AirRAyiVEByeSwV-80" value="int             rcu_tasks_idle_cpu;" style="text;strokeColor=default;fillColor=none;align=left;verticalAlign=middle;spacingLeft=4;spacingRight=4;overflow=hidden;rotatable=0;points=[[0,0.5],[1,0.5]];portConstraint=eastwest;" vertex="1" parent="CahL7AirRAyiVEByeSwV-1">
          <mxGeometry y="990" width="400" height="20" as="geometry" />
        </mxCell>
        <mxCell id="CahL7AirRAyiVEByeSwV-81" value="struct list_head        rcu_tasks_holdout_list;" style="text;strokeColor=default;fillColor=none;align=left;verticalAlign=middle;spacingLeft=4;spacingRight=4;overflow=hidden;rotatable=0;points=[[0,0.5],[1,0.5]];portConstraint=eastwest;" vertex="1" parent="CahL7AirRAyiVEByeSwV-1">
          <mxGeometry y="1010" width="400" height="20" as="geometry" />
        </mxCell>
        <mxCell id="CahL7AirRAyiVEByeSwV-83" value="int             trc_reader_nesting;" style="text;strokeColor=default;fillColor=none;align=left;verticalAlign=middle;spacingLeft=4;spacingRight=4;overflow=hidden;rotatable=0;points=[[0,0.5],[1,0.5]];portConstraint=eastwest;" vertex="1" parent="CahL7AirRAyiVEByeSwV-1">
          <mxGeometry y="1030" width="400" height="20" as="geometry" />
        </mxCell>
        <mxCell id="CahL7AirRAyiVEByeSwV-84" value="int             trc_ipi_to_cpu;" style="text;strokeColor=default;fillColor=none;align=left;verticalAlign=middle;spacingLeft=4;spacingRight=4;overflow=hidden;rotatable=0;points=[[0,0.5],[1,0.5]];portConstraint=eastwest;" vertex="1" parent="CahL7AirRAyiVEByeSwV-1">
          <mxGeometry y="1050" width="400" height="20" as="geometry" />
        </mxCell>
        <mxCell id="CahL7AirRAyiVEByeSwV-85" value="union rcu_special       trc_reader_special;" style="text;strokeColor=default;fillColor=none;align=left;verticalAlign=middle;spacingLeft=4;spacingRight=4;overflow=hidden;rotatable=0;points=[[0,0.5],[1,0.5]];portConstraint=eastwest;" vertex="1" parent="CahL7AirRAyiVEByeSwV-1">
          <mxGeometry y="1070" width="400" height="20" as="geometry" />
        </mxCell>
        <mxCell id="CahL7AirRAyiVEByeSwV-87" value="bool                trc_reader_checked;" style="text;strokeColor=default;fillColor=none;align=left;verticalAlign=middle;spacingLeft=4;spacingRight=4;overflow=hidden;rotatable=0;points=[[0,0.5],[1,0.5]];portConstraint=eastwest;" vertex="1" parent="CahL7AirRAyiVEByeSwV-1">
          <mxGeometry y="1090" width="400" height="20" as="geometry" />
        </mxCell>
        <mxCell id="CahL7AirRAyiVEByeSwV-88" value="struct list_head        trc_holdout_list;" style="text;strokeColor=default;fillColor=none;align=left;verticalAlign=middle;spacingLeft=4;spacingRight=4;overflow=hidden;rotatable=0;points=[[0,0.5],[1,0.5]];portConstraint=eastwest;" vertex="1" parent="CahL7AirRAyiVEByeSwV-1">
          <mxGeometry y="1110" width="400" height="20" as="geometry" />
        </mxCell>
        <mxCell id="CahL7AirRAyiVEByeSwV-90" value="struct sched_info       sched_info;" style="text;strokeColor=default;fillColor=none;align=left;verticalAlign=middle;spacingLeft=4;spacingRight=4;overflow=hidden;rotatable=0;points=[[0,0.5],[1,0.5]];portConstraint=eastwest;" vertex="1" parent="CahL7AirRAyiVEByeSwV-1">
          <mxGeometry y="1130" width="400" height="20" as="geometry" />
        </mxCell>
        <mxCell id="CahL7AirRAyiVEByeSwV-91" value="struct list_head        tasks;" style="text;strokeColor=default;fillColor=none;align=left;verticalAlign=middle;spacingLeft=4;spacingRight=4;overflow=hidden;rotatable=0;points=[[0,0.5],[1,0.5]];portConstraint=eastwest;" vertex="1" parent="CahL7AirRAyiVEByeSwV-1">
          <mxGeometry y="1150" width="400" height="20" as="geometry" />
        </mxCell>
        <mxCell id="CahL7AirRAyiVEByeSwV-92" value="struct plist_node       pushable_tasks;" style="text;strokeColor=default;fillColor=none;align=left;verticalAlign=middle;spacingLeft=4;spacingRight=4;overflow=hidden;rotatable=0;points=[[0,0.5],[1,0.5]];portConstraint=eastwest;" vertex="1" parent="CahL7AirRAyiVEByeSwV-1">
          <mxGeometry y="1170" width="400" height="20" as="geometry" />
        </mxCell>
        <mxCell id="CahL7AirRAyiVEByeSwV-93" value="struct rb_node          pushable_dl_tasks;" style="text;strokeColor=default;fillColor=none;align=left;verticalAlign=middle;spacingLeft=4;spacingRight=4;overflow=hidden;rotatable=0;points=[[0,0.5],[1,0.5]];portConstraint=eastwest;" vertex="1" parent="CahL7AirRAyiVEByeSwV-1">
          <mxGeometry y="1190" width="400" height="20" as="geometry" />
        </mxCell>
        <mxCell id="CahL7AirRAyiVEByeSwV-94" value="struct mm_struct        *mm;" style="text;strokeColor=default;fillColor=none;align=left;verticalAlign=middle;spacingLeft=4;spacingRight=4;overflow=hidden;rotatable=0;points=[[0,0.5],[1,0.5]];portConstraint=eastwest;" vertex="1" parent="CahL7AirRAyiVEByeSwV-1">
          <mxGeometry y="1210" width="400" height="20" as="geometry" />
        </mxCell>
        <mxCell id="CahL7AirRAyiVEByeSwV-95" value="struct mm_struct        *active_mm;" style="text;strokeColor=default;fillColor=none;align=left;verticalAlign=middle;spacingLeft=4;spacingRight=4;overflow=hidden;rotatable=0;points=[[0,0.5],[1,0.5]];portConstraint=eastwest;" vertex="1" parent="CahL7AirRAyiVEByeSwV-1">
          <mxGeometry y="1230" width="400" height="20" as="geometry" />
        </mxCell>
        <mxCell id="CahL7AirRAyiVEByeSwV-96" value="struct vmacache         vmacache;" style="text;strokeColor=default;fillColor=none;align=left;verticalAlign=middle;spacingLeft=4;spacingRight=4;overflow=hidden;rotatable=0;points=[[0,0.5],[1,0.5]];portConstraint=eastwest;" vertex="1" parent="CahL7AirRAyiVEByeSwV-1">
          <mxGeometry y="1250" width="400" height="20" as="geometry" />
        </mxCell>
        <mxCell id="CahL7AirRAyiVEByeSwV-97" value="struct task_rss_stat        rss_stat;" style="text;strokeColor=default;fillColor=none;align=left;verticalAlign=middle;spacingLeft=4;spacingRight=4;overflow=hidden;rotatable=0;points=[[0,0.5],[1,0.5]];portConstraint=eastwest;" vertex="1" parent="CahL7AirRAyiVEByeSwV-1">
          <mxGeometry y="1270" width="400" height="20" as="geometry" />
        </mxCell>
        <mxCell id="CahL7AirRAyiVEByeSwV-184" value="int             exit_state;" style="text;strokeColor=default;fillColor=none;align=left;verticalAlign=middle;spacingLeft=4;spacingRight=4;overflow=hidden;rotatable=0;points=[[0,0.5],[1,0.5]];portConstraint=eastwest;" vertex="1" parent="CahL7AirRAyiVEByeSwV-1">
          <mxGeometry y="1290" width="400" height="20" as="geometry" />
        </mxCell>
        <mxCell id="CahL7AirRAyiVEByeSwV-185" value="int             exit_code;" style="text;strokeColor=default;fillColor=none;align=left;verticalAlign=middle;spacingLeft=4;spacingRight=4;overflow=hidden;rotatable=0;points=[[0,0.5],[1,0.5]];portConstraint=eastwest;" vertex="1" parent="CahL7AirRAyiVEByeSwV-1">
          <mxGeometry y="1310" width="400" height="20" as="geometry" />
        </mxCell>
        <mxCell id="CahL7AirRAyiVEByeSwV-186" value="int             exit_signal;" style="text;strokeColor=default;fillColor=none;align=left;verticalAlign=middle;spacingLeft=4;spacingRight=4;overflow=hidden;rotatable=0;points=[[0,0.5],[1,0.5]];portConstraint=eastwest;" vertex="1" parent="CahL7AirRAyiVEByeSwV-1">
          <mxGeometry y="1330" width="400" height="20" as="geometry" />
        </mxCell>
        <mxCell id="CahL7AirRAyiVEByeSwV-187" value="int             pdeath_signal;" style="text;strokeColor=default;fillColor=none;align=left;verticalAlign=middle;spacingLeft=4;spacingRight=4;overflow=hidden;rotatable=0;points=[[0,0.5],[1,0.5]];portConstraint=eastwest;" vertex="1" parent="CahL7AirRAyiVEByeSwV-1">
          <mxGeometry y="1350" width="400" height="20" as="geometry" />
        </mxCell>
        <mxCell id="CahL7AirRAyiVEByeSwV-188" value="unsigned long           jobctl;" style="text;strokeColor=default;fillColor=none;align=left;verticalAlign=middle;spacingLeft=4;spacingRight=4;overflow=hidden;rotatable=0;points=[[0,0.5],[1,0.5]];portConstraint=eastwest;" vertex="1" parent="CahL7AirRAyiVEByeSwV-1">
          <mxGeometry y="1370" width="400" height="20" as="geometry" />
        </mxCell>
        <mxCell id="CahL7AirRAyiVEByeSwV-189" value="unsigned int            personality;" style="text;strokeColor=default;fillColor=none;align=left;verticalAlign=middle;spacingLeft=4;spacingRight=4;overflow=hidden;rotatable=0;points=[[0,0.5],[1,0.5]];portConstraint=eastwest;" vertex="1" parent="CahL7AirRAyiVEByeSwV-1">
          <mxGeometry y="1390" width="400" height="20" as="geometry" />
        </mxCell>
        <mxCell id="CahL7AirRAyiVEByeSwV-190" value="unsigned            sched_reset_on_fork:1;" style="text;strokeColor=default;fillColor=none;align=left;verticalAlign=middle;spacingLeft=4;spacingRight=4;overflow=hidden;rotatable=0;points=[[0,0.5],[1,0.5]];portConstraint=eastwest;" vertex="1" parent="CahL7AirRAyiVEByeSwV-1">
          <mxGeometry y="1410" width="400" height="20" as="geometry" />
        </mxCell>
        <mxCell id="CahL7AirRAyiVEByeSwV-191" value="unsigned            sched_contributes_to_load:1;" style="text;strokeColor=default;fillColor=none;align=left;verticalAlign=middle;spacingLeft=4;spacingRight=4;overflow=hidden;rotatable=0;points=[[0,0.5],[1,0.5]];portConstraint=eastwest;" vertex="1" parent="CahL7AirRAyiVEByeSwV-1">
          <mxGeometry y="1430" width="400" height="20" as="geometry" />
        </mxCell>
        <mxCell id="CahL7AirRAyiVEByeSwV-192" value="unsigned            sched_migrated:1;" style="text;strokeColor=default;fillColor=none;align=left;verticalAlign=middle;spacingLeft=4;spacingRight=4;overflow=hidden;rotatable=0;points=[[0,0.5],[1,0.5]];portConstraint=eastwest;" vertex="1" parent="CahL7AirRAyiVEByeSwV-1">
          <mxGeometry y="1450" width="400" height="20" as="geometry" />
        </mxCell>
        <mxCell id="CahL7AirRAyiVEByeSwV-193" value="unsigned            sched_psi_wake_requeue:1;" style="text;strokeColor=default;fillColor=none;align=left;verticalAlign=middle;spacingLeft=4;spacingRight=4;overflow=hidden;rotatable=0;points=[[0,0.5],[1,0.5]];portConstraint=eastwest;" vertex="1" parent="CahL7AirRAyiVEByeSwV-1">
          <mxGeometry y="1470" width="400" height="20" as="geometry" />
        </mxCell>
        <mxCell id="CahL7AirRAyiVEByeSwV-194" value="unsigned            sched_remote_wakeup:1;" style="text;strokeColor=default;fillColor=none;align=left;verticalAlign=middle;spacingLeft=4;spacingRight=4;overflow=hidden;rotatable=0;points=[[0,0.5],[1,0.5]];portConstraint=eastwest;" vertex="1" parent="CahL7AirRAyiVEByeSwV-1">
          <mxGeometry y="1490" width="400" height="20" as="geometry" />
        </mxCell>
        <mxCell id="CahL7AirRAyiVEByeSwV-195" value="unsigned            in_execve:1;" style="text;strokeColor=default;fillColor=none;align=left;verticalAlign=middle;spacingLeft=4;spacingRight=4;overflow=hidden;rotatable=0;points=[[0,0.5],[1,0.5]];portConstraint=eastwest;" vertex="1" parent="CahL7AirRAyiVEByeSwV-1">
          <mxGeometry y="1510" width="400" height="20" as="geometry" />
        </mxCell>
        <mxCell id="CahL7AirRAyiVEByeSwV-196" value="unsigned            in_iowait:1;" style="text;strokeColor=default;fillColor=none;align=left;verticalAlign=middle;spacingLeft=4;spacingRight=4;overflow=hidden;rotatable=0;points=[[0,0.5],[1,0.5]];portConstraint=eastwest;" vertex="1" parent="CahL7AirRAyiVEByeSwV-1">
          <mxGeometry y="1530" width="400" height="20" as="geometry" />
        </mxCell>
        <mxCell id="CahL7AirRAyiVEByeSwV-197" value="unsigned            restore_sigmask:1;" style="text;strokeColor=default;fillColor=none;align=left;verticalAlign=middle;spacingLeft=4;spacingRight=4;overflow=hidden;rotatable=0;points=[[0,0.5],[1,0.5]];portConstraint=eastwest;" vertex="1" parent="CahL7AirRAyiVEByeSwV-1">
          <mxGeometry y="1550" width="400" height="20" as="geometry" />
        </mxCell>
        <mxCell id="CahL7AirRAyiVEByeSwV-198" value="unsigned            in_user_fault:1;" style="text;strokeColor=default;fillColor=none;align=left;verticalAlign=middle;spacingLeft=4;spacingRight=4;overflow=hidden;rotatable=0;points=[[0,0.5],[1,0.5]];portConstraint=eastwest;" vertex="1" parent="CahL7AirRAyiVEByeSwV-1">
          <mxGeometry y="1570" width="400" height="20" as="geometry" />
        </mxCell>
        <mxCell id="CahL7AirRAyiVEByeSwV-199" value="unsigned            brk_randomized:1;" style="text;strokeColor=default;fillColor=none;align=left;verticalAlign=middle;spacingLeft=4;spacingRight=4;overflow=hidden;rotatable=0;points=[[0,0.5],[1,0.5]];portConstraint=eastwest;" vertex="1" parent="CahL7AirRAyiVEByeSwV-1">
          <mxGeometry y="1590" width="400" height="20" as="geometry" />
        </mxCell>
        <mxCell id="CahL7AirRAyiVEByeSwV-200" value="unsigned            no_cgroup_migration:1;" style="text;strokeColor=default;fillColor=none;align=left;verticalAlign=middle;spacingLeft=4;spacingRight=4;overflow=hidden;rotatable=0;points=[[0,0.5],[1,0.5]];portConstraint=eastwest;" vertex="1" parent="CahL7AirRAyiVEByeSwV-1">
          <mxGeometry y="1610" width="400" height="20" as="geometry" />
        </mxCell>
        <mxCell id="CahL7AirRAyiVEByeSwV-201" value="unsigned            frozen:1;" style="text;strokeColor=default;fillColor=none;align=left;verticalAlign=middle;spacingLeft=4;spacingRight=4;overflow=hidden;rotatable=0;points=[[0,0.5],[1,0.5]];portConstraint=eastwest;" vertex="1" parent="CahL7AirRAyiVEByeSwV-1">
          <mxGeometry y="1630" width="400" height="20" as="geometry" />
        </mxCell>
        <mxCell id="CahL7AirRAyiVEByeSwV-202" value="unsigned            use_memdelay:1;" style="text;strokeColor=default;fillColor=none;align=left;verticalAlign=middle;spacingLeft=4;spacingRight=4;overflow=hidden;rotatable=0;points=[[0,0.5],[1,0.5]];portConstraint=eastwest;" vertex="1" parent="CahL7AirRAyiVEByeSwV-1">
          <mxGeometry y="1650" width="400" height="20" as="geometry" />
        </mxCell>
        <mxCell id="CahL7AirRAyiVEByeSwV-203" value="unsigned            in_memstall:1;" style="text;strokeColor=default;fillColor=none;align=left;verticalAlign=middle;spacingLeft=4;spacingRight=4;overflow=hidden;rotatable=0;points=[[0,0.5],[1,0.5]];portConstraint=eastwest;" vertex="1" parent="CahL7AirRAyiVEByeSwV-1">
          <mxGeometry y="1670" width="400" height="20" as="geometry" />
        </mxCell>
        <mxCell id="CahL7AirRAyiVEByeSwV-204" value="unsigned            in_page_owner:1;" style="text;strokeColor=default;fillColor=none;align=left;verticalAlign=middle;spacingLeft=4;spacingRight=4;overflow=hidden;rotatable=0;points=[[0,0.5],[1,0.5]];portConstraint=eastwest;" vertex="1" parent="CahL7AirRAyiVEByeSwV-1">
          <mxGeometry y="1690" width="400" height="20" as="geometry" />
        </mxCell>
        <mxCell id="CahL7AirRAyiVEByeSwV-205" value="unsigned            in_eventfd_signal:1;" style="text;strokeColor=default;fillColor=none;align=left;verticalAlign=middle;spacingLeft=4;spacingRight=4;overflow=hidden;rotatable=0;points=[[0,0.5],[1,0.5]];portConstraint=eastwest;" vertex="1" parent="CahL7AirRAyiVEByeSwV-1">
          <mxGeometry y="1710" width="400" height="20" as="geometry" />
        </mxCell>
        <mxCell id="CahL7AirRAyiVEByeSwV-206" value="unsigned            pasid_activated:1;" style="text;strokeColor=default;fillColor=none;align=left;verticalAlign=middle;spacingLeft=4;spacingRight=4;overflow=hidden;rotatable=0;points=[[0,0.5],[1,0.5]];portConstraint=eastwest;" vertex="1" parent="CahL7AirRAyiVEByeSwV-1">
          <mxGeometry y="1730" width="400" height="20" as="geometry" />
        </mxCell>
        <mxCell id="CahL7AirRAyiVEByeSwV-207" value="unsigned long           atomic_flags;" style="text;strokeColor=default;fillColor=none;align=left;verticalAlign=middle;spacingLeft=4;spacingRight=4;overflow=hidden;rotatable=0;points=[[0,0.5],[1,0.5]];portConstraint=eastwest;" vertex="1" parent="CahL7AirRAyiVEByeSwV-1">
          <mxGeometry y="1750" width="400" height="20" as="geometry" />
        </mxCell>
        <mxCell id="CahL7AirRAyiVEByeSwV-208" value="struct restart_block        restart_block;" style="text;strokeColor=default;fillColor=none;align=left;verticalAlign=middle;spacingLeft=4;spacingRight=4;overflow=hidden;rotatable=0;points=[[0,0.5],[1,0.5]];portConstraint=eastwest;" vertex="1" parent="CahL7AirRAyiVEByeSwV-1">
          <mxGeometry y="1770" width="400" height="20" as="geometry" />
        </mxCell>
        <mxCell id="CahL7AirRAyiVEByeSwV-209" value="pid_t               pid;" style="text;strokeColor=default;fillColor=none;align=left;verticalAlign=middle;spacingLeft=4;spacingRight=4;overflow=hidden;rotatable=0;points=[[0,0.5],[1,0.5]];portConstraint=eastwest;" vertex="1" parent="CahL7AirRAyiVEByeSwV-1">
          <mxGeometry y="1790" width="400" height="20" as="geometry" />
        </mxCell>
        <mxCell id="CahL7AirRAyiVEByeSwV-210" value="pid_t               tgid;" style="text;strokeColor=default;fillColor=none;align=left;verticalAlign=middle;spacingLeft=4;spacingRight=4;overflow=hidden;rotatable=0;points=[[0,0.5],[1,0.5]];portConstraint=eastwest;" vertex="1" parent="CahL7AirRAyiVEByeSwV-1">
          <mxGeometry y="1810" width="400" height="20" as="geometry" />
        </mxCell>
        <mxCell id="CahL7AirRAyiVEByeSwV-211" value="unsigned long           stack_canary;" style="text;strokeColor=default;fillColor=none;align=left;verticalAlign=middle;spacingLeft=4;spacingRight=4;overflow=hidden;rotatable=0;points=[[0,0.5],[1,0.5]];portConstraint=eastwest;" vertex="1" parent="CahL7AirRAyiVEByeSwV-1">
          <mxGeometry y="1830" width="400" height="20" as="geometry" />
        </mxCell>
        <mxCell id="CahL7AirRAyiVEByeSwV-212" value="struct task_struct __rcu    *real_parent;" style="text;strokeColor=default;fillColor=none;align=left;verticalAlign=middle;spacingLeft=4;spacingRight=4;overflow=hidden;rotatable=0;points=[[0,0.5],[1,0.5]];portConstraint=eastwest;" vertex="1" parent="CahL7AirRAyiVEByeSwV-1">
          <mxGeometry y="1850" width="400" height="20" as="geometry" />
        </mxCell>
        <mxCell id="CahL7AirRAyiVEByeSwV-213" value="struct task_struct __rcu    *parent;" style="text;strokeColor=default;fillColor=none;align=left;verticalAlign=middle;spacingLeft=4;spacingRight=4;overflow=hidden;rotatable=0;points=[[0,0.5],[1,0.5]];portConstraint=eastwest;" vertex="1" parent="CahL7AirRAyiVEByeSwV-1">
          <mxGeometry y="1870" width="400" height="20" as="geometry" />
        </mxCell>
        <mxCell id="CahL7AirRAyiVEByeSwV-214" value="struct list_head        children;" style="text;strokeColor=default;fillColor=none;align=left;verticalAlign=middle;spacingLeft=4;spacingRight=4;overflow=hidden;rotatable=0;points=[[0,0.5],[1,0.5]];portConstraint=eastwest;" vertex="1" parent="CahL7AirRAyiVEByeSwV-1">
          <mxGeometry y="1890" width="400" height="20" as="geometry" />
        </mxCell>
        <mxCell id="CahL7AirRAyiVEByeSwV-215" value="struct list_head        sibling;" style="text;strokeColor=default;fillColor=none;align=left;verticalAlign=middle;spacingLeft=4;spacingRight=4;overflow=hidden;rotatable=0;points=[[0,0.5],[1,0.5]];portConstraint=eastwest;" vertex="1" parent="CahL7AirRAyiVEByeSwV-1">
          <mxGeometry y="1910" width="400" height="20" as="geometry" />
        </mxCell>
        <mxCell id="CahL7AirRAyiVEByeSwV-216" value="struct task_struct      *group_leader;" style="text;strokeColor=default;fillColor=none;align=left;verticalAlign=middle;spacingLeft=4;spacingRight=4;overflow=hidden;rotatable=0;points=[[0,0.5],[1,0.5]];portConstraint=eastwest;" vertex="1" parent="CahL7AirRAyiVEByeSwV-1">
          <mxGeometry y="1930" width="400" height="20" as="geometry" />
        </mxCell>
        <mxCell id="CahL7AirRAyiVEByeSwV-217" value="struct list_head        ptraced;" style="text;strokeColor=default;fillColor=none;align=left;verticalAlign=middle;spacingLeft=4;spacingRight=4;overflow=hidden;rotatable=0;points=[[0,0.5],[1,0.5]];portConstraint=eastwest;" vertex="1" parent="CahL7AirRAyiVEByeSwV-1">
          <mxGeometry y="1950" width="400" height="20" as="geometry" />
        </mxCell>
        <mxCell id="CahL7AirRAyiVEByeSwV-218" value="struct list_head        ptrace_entry;" style="text;strokeColor=default;fillColor=none;align=left;verticalAlign=middle;spacingLeft=4;spacingRight=4;overflow=hidden;rotatable=0;points=[[0,0.5],[1,0.5]];portConstraint=eastwest;" vertex="1" parent="CahL7AirRAyiVEByeSwV-1">
          <mxGeometry y="1970" width="400" height="20" as="geometry" />
        </mxCell>
        <mxCell id="CahL7AirRAyiVEByeSwV-219" value="struct pid          *thread_pid;" style="text;strokeColor=default;fillColor=none;align=left;verticalAlign=middle;spacingLeft=4;spacingRight=4;overflow=hidden;rotatable=0;points=[[0,0.5],[1,0.5]];portConstraint=eastwest;" vertex="1" parent="CahL7AirRAyiVEByeSwV-1">
          <mxGeometry y="1990" width="400" height="20" as="geometry" />
        </mxCell>
        <mxCell id="CahL7AirRAyiVEByeSwV-220" value="struct hlist_node       pid_links[PIDTYPE_MAX];" style="text;strokeColor=default;fillColor=none;align=left;verticalAlign=middle;spacingLeft=4;spacingRight=4;overflow=hidden;rotatable=0;points=[[0,0.5],[1,0.5]];portConstraint=eastwest;" vertex="1" parent="CahL7AirRAyiVEByeSwV-1">
          <mxGeometry y="2010" width="400" height="20" as="geometry" />
        </mxCell>
        <mxCell id="CahL7AirRAyiVEByeSwV-221" value="struct list_head        thread_group;" style="text;strokeColor=default;fillColor=none;align=left;verticalAlign=middle;spacingLeft=4;spacingRight=4;overflow=hidden;rotatable=0;points=[[0,0.5],[1,0.5]];portConstraint=eastwest;" vertex="1" parent="CahL7AirRAyiVEByeSwV-1">
          <mxGeometry y="2030" width="400" height="20" as="geometry" />
        </mxCell>
        <mxCell id="CahL7AirRAyiVEByeSwV-222" value="struct list_head        thread_node;" style="text;strokeColor=default;fillColor=none;align=left;verticalAlign=middle;spacingLeft=4;spacingRight=4;overflow=hidden;rotatable=0;points=[[0,0.5],[1,0.5]];portConstraint=eastwest;" vertex="1" parent="CahL7AirRAyiVEByeSwV-1">
          <mxGeometry y="2050" width="400" height="20" as="geometry" />
        </mxCell>
        <mxCell id="CahL7AirRAyiVEByeSwV-223" value="struct completion       *vfork_done;" style="text;strokeColor=default;fillColor=none;align=left;verticalAlign=middle;spacingLeft=4;spacingRight=4;overflow=hidden;rotatable=0;points=[[0,0.5],[1,0.5]];portConstraint=eastwest;" vertex="1" parent="CahL7AirRAyiVEByeSwV-1">
          <mxGeometry y="2070" width="400" height="20" as="geometry" />
        </mxCell>
        <mxCell id="CahL7AirRAyiVEByeSwV-224" value="int __user          *set_child_tid;" style="text;strokeColor=default;fillColor=none;align=left;verticalAlign=middle;spacingLeft=4;spacingRight=4;overflow=hidden;rotatable=0;points=[[0,0.5],[1,0.5]];portConstraint=eastwest;" vertex="1" parent="CahL7AirRAyiVEByeSwV-1">
          <mxGeometry y="2090" width="400" height="20" as="geometry" />
        </mxCell>
        <mxCell id="CahL7AirRAyiVEByeSwV-225" value="int __user          *clear_child_tid;" style="text;strokeColor=default;fillColor=none;align=left;verticalAlign=middle;spacingLeft=4;spacingRight=4;overflow=hidden;rotatable=0;points=[[0,0.5],[1,0.5]];portConstraint=eastwest;" vertex="1" parent="CahL7AirRAyiVEByeSwV-1">
          <mxGeometry y="2110" width="400" height="20" as="geometry" />
        </mxCell>
        <mxCell id="CahL7AirRAyiVEByeSwV-226" value="void                *worker_private;" style="text;strokeColor=default;fillColor=none;align=left;verticalAlign=middle;spacingLeft=4;spacingRight=4;overflow=hidden;rotatable=0;points=[[0,0.5],[1,0.5]];portConstraint=eastwest;" vertex="1" parent="CahL7AirRAyiVEByeSwV-1">
          <mxGeometry y="2130" width="400" height="20" as="geometry" />
        </mxCell>
        <mxCell id="CahL7AirRAyiVEByeSwV-227" value="u64             utime;" style="text;strokeColor=default;fillColor=none;align=left;verticalAlign=middle;spacingLeft=4;spacingRight=4;overflow=hidden;rotatable=0;points=[[0,0.5],[1,0.5]];portConstraint=eastwest;" vertex="1" parent="CahL7AirRAyiVEByeSwV-1">
          <mxGeometry y="2150" width="400" height="20" as="geometry" />
        </mxCell>
        <mxCell id="CahL7AirRAyiVEByeSwV-228" value="u64             stime;" style="text;strokeColor=default;fillColor=none;align=left;verticalAlign=middle;spacingLeft=4;spacingRight=4;overflow=hidden;rotatable=0;points=[[0,0.5],[1,0.5]];portConstraint=eastwest;" vertex="1" parent="CahL7AirRAyiVEByeSwV-1">
          <mxGeometry y="2170" width="400" height="20" as="geometry" />
        </mxCell>
        <mxCell id="CahL7AirRAyiVEByeSwV-229" value="u64             utimescaled;" style="text;strokeColor=default;fillColor=none;align=left;verticalAlign=middle;spacingLeft=4;spacingRight=4;overflow=hidden;rotatable=0;points=[[0,0.5],[1,0.5]];portConstraint=eastwest;" vertex="1" parent="CahL7AirRAyiVEByeSwV-1">
          <mxGeometry y="2190" width="400" height="20" as="geometry" />
        </mxCell>
        <mxCell id="CahL7AirRAyiVEByeSwV-230" value="u64             stimescaled;" style="text;strokeColor=default;fillColor=none;align=left;verticalAlign=middle;spacingLeft=4;spacingRight=4;overflow=hidden;rotatable=0;points=[[0,0.5],[1,0.5]];portConstraint=eastwest;" vertex="1" parent="CahL7AirRAyiVEByeSwV-1">
          <mxGeometry y="2210" width="400" height="20" as="geometry" />
        </mxCell>
        <mxCell id="CahL7AirRAyiVEByeSwV-231" value="u64             gtime;" style="text;strokeColor=default;fillColor=none;align=left;verticalAlign=middle;spacingLeft=4;spacingRight=4;overflow=hidden;rotatable=0;points=[[0,0.5],[1,0.5]];portConstraint=eastwest;" vertex="1" parent="CahL7AirRAyiVEByeSwV-1">
          <mxGeometry y="2230" width="400" height="20" as="geometry" />
        </mxCell>
        <mxCell id="CahL7AirRAyiVEByeSwV-232" value="struct prev_cputime     prev_cputime;" style="text;strokeColor=default;fillColor=none;align=left;verticalAlign=middle;spacingLeft=4;spacingRight=4;overflow=hidden;rotatable=0;points=[[0,0.5],[1,0.5]];portConstraint=eastwest;" vertex="1" parent="CahL7AirRAyiVEByeSwV-1">
          <mxGeometry y="2250" width="400" height="20" as="geometry" />
        </mxCell>
        <mxCell id="CahL7AirRAyiVEByeSwV-233" value="struct vtime            vtime;" style="text;strokeColor=default;fillColor=none;align=left;verticalAlign=middle;spacingLeft=4;spacingRight=4;overflow=hidden;rotatable=0;points=[[0,0.5],[1,0.5]];portConstraint=eastwest;" vertex="1" parent="CahL7AirRAyiVEByeSwV-1">
          <mxGeometry y="2270" width="400" height="20" as="geometry" />
        </mxCell>
        <mxCell id="CahL7AirRAyiVEByeSwV-234" value="atomic_t            tick_dep_mask;" style="text;strokeColor=default;fillColor=none;align=left;verticalAlign=middle;spacingLeft=4;spacingRight=4;overflow=hidden;rotatable=0;points=[[0,0.5],[1,0.5]];portConstraint=eastwest;" vertex="1" parent="CahL7AirRAyiVEByeSwV-1">
          <mxGeometry y="2290" width="400" height="20" as="geometry" />
        </mxCell>
        <mxCell id="CahL7AirRAyiVEByeSwV-235" value="unsigned long           nvcsw;" style="text;strokeColor=default;fillColor=none;align=left;verticalAlign=middle;spacingLeft=4;spacingRight=4;overflow=hidden;rotatable=0;points=[[0,0.5],[1,0.5]];portConstraint=eastwest;" vertex="1" parent="CahL7AirRAyiVEByeSwV-1">
          <mxGeometry y="2310" width="400" height="20" as="geometry" />
        </mxCell>
        <mxCell id="CahL7AirRAyiVEByeSwV-236" value="unsigned long           nivcsw;" style="text;strokeColor=default;fillColor=none;align=left;verticalAlign=middle;spacingLeft=4;spacingRight=4;overflow=hidden;rotatable=0;points=[[0,0.5],[1,0.5]];portConstraint=eastwest;" vertex="1" parent="CahL7AirRAyiVEByeSwV-1">
          <mxGeometry y="2330" width="400" height="20" as="geometry" />
        </mxCell>
        <mxCell id="CahL7AirRAyiVEByeSwV-237" value="u64             start_time;" style="text;strokeColor=default;fillColor=none;align=left;verticalAlign=middle;spacingLeft=4;spacingRight=4;overflow=hidden;rotatable=0;points=[[0,0.5],[1,0.5]];portConstraint=eastwest;" vertex="1" parent="CahL7AirRAyiVEByeSwV-1">
          <mxGeometry y="2350" width="400" height="20" as="geometry" />
        </mxCell>
        <mxCell id="CahL7AirRAyiVEByeSwV-238" value="u64             start_boottime;" style="text;strokeColor=default;fillColor=none;align=left;verticalAlign=middle;spacingLeft=4;spacingRight=4;overflow=hidden;rotatable=0;points=[[0,0.5],[1,0.5]];portConstraint=eastwest;" vertex="1" parent="CahL7AirRAyiVEByeSwV-1">
          <mxGeometry y="2370" width="400" height="20" as="geometry" />
        </mxCell>
        <mxCell id="CahL7AirRAyiVEByeSwV-239" value="unsigned long           min_flt;" style="text;strokeColor=default;fillColor=none;align=left;verticalAlign=middle;spacingLeft=4;spacingRight=4;overflow=hidden;rotatable=0;points=[[0,0.5],[1,0.5]];portConstraint=eastwest;" vertex="1" parent="CahL7AirRAyiVEByeSwV-1">
          <mxGeometry y="2390" width="400" height="20" as="geometry" />
        </mxCell>
        <mxCell id="CahL7AirRAyiVEByeSwV-240" value="unsigned long           maj_flt;" style="text;strokeColor=default;fillColor=none;align=left;verticalAlign=middle;spacingLeft=4;spacingRight=4;overflow=hidden;rotatable=0;points=[[0,0.5],[1,0.5]];portConstraint=eastwest;" vertex="1" parent="CahL7AirRAyiVEByeSwV-1">
          <mxGeometry y="2410" width="400" height="20" as="geometry" />
        </mxCell>
        <mxCell id="CahL7AirRAyiVEByeSwV-241" value="struct posix_cputimers      posix_cputimers;" style="text;strokeColor=default;fillColor=none;align=left;verticalAlign=middle;spacingLeft=4;spacingRight=4;overflow=hidden;rotatable=0;points=[[0,0.5],[1,0.5]];portConstraint=eastwest;" vertex="1" parent="CahL7AirRAyiVEByeSwV-1">
          <mxGeometry y="2430" width="400" height="20" as="geometry" />
        </mxCell>
        <mxCell id="CahL7AirRAyiVEByeSwV-242" value="struct posix_cputimers_work posix_cputimers_work;" style="text;strokeColor=default;fillColor=none;align=left;verticalAlign=middle;spacingLeft=4;spacingRight=4;overflow=hidden;rotatable=0;points=[[0,0.5],[1,0.5]];portConstraint=eastwest;" vertex="1" parent="CahL7AirRAyiVEByeSwV-1">
          <mxGeometry y="2450" width="400" height="20" as="geometry" />
        </mxCell>
        <mxCell id="CahL7AirRAyiVEByeSwV-243" value="const struct cred __rcu     *ptracer_cred;" style="text;strokeColor=default;fillColor=none;align=left;verticalAlign=middle;spacingLeft=4;spacingRight=4;overflow=hidden;rotatable=0;points=[[0,0.5],[1,0.5]];portConstraint=eastwest;" vertex="1" parent="CahL7AirRAyiVEByeSwV-1">
          <mxGeometry y="2470" width="400" height="20" as="geometry" />
        </mxCell>
        <mxCell id="CahL7AirRAyiVEByeSwV-244" value="const struct cred __rcu     *real_cred;" style="text;strokeColor=default;fillColor=none;align=left;verticalAlign=middle;spacingLeft=4;spacingRight=4;overflow=hidden;rotatable=0;points=[[0,0.5],[1,0.5]];portConstraint=eastwest;" vertex="1" parent="CahL7AirRAyiVEByeSwV-1">
          <mxGeometry y="2490" width="400" height="20" as="geometry" />
        </mxCell>
        <mxCell id="CahL7AirRAyiVEByeSwV-245" value="const struct cred __rcu     *cred;" style="text;strokeColor=default;fillColor=none;align=left;verticalAlign=middle;spacingLeft=4;spacingRight=4;overflow=hidden;rotatable=0;points=[[0,0.5],[1,0.5]];portConstraint=eastwest;" vertex="1" parent="CahL7AirRAyiVEByeSwV-1">
          <mxGeometry y="2510" width="400" height="20" as="geometry" />
        </mxCell>
        <mxCell id="CahL7AirRAyiVEByeSwV-246" value="struct key          *cached_requested_key;" style="text;strokeColor=default;fillColor=none;align=left;verticalAlign=middle;spacingLeft=4;spacingRight=4;overflow=hidden;rotatable=0;points=[[0,0.5],[1,0.5]];portConstraint=eastwest;" vertex="1" parent="CahL7AirRAyiVEByeSwV-1">
          <mxGeometry y="2530" width="400" height="20" as="geometry" />
        </mxCell>
        <mxCell id="CahL7AirRAyiVEByeSwV-247" value="char                comm[TASK_COMM_LEN];" style="text;strokeColor=default;fillColor=none;align=left;verticalAlign=middle;spacingLeft=4;spacingRight=4;overflow=hidden;rotatable=0;points=[[0,0.5],[1,0.5]];portConstraint=eastwest;" vertex="1" parent="CahL7AirRAyiVEByeSwV-1">
          <mxGeometry y="2550" width="400" height="20" as="geometry" />
        </mxCell>
        <mxCell id="CahL7AirRAyiVEByeSwV-248" value="struct nameidata        *nameidata;" style="text;strokeColor=default;fillColor=none;align=left;verticalAlign=middle;spacingLeft=4;spacingRight=4;overflow=hidden;rotatable=0;points=[[0,0.5],[1,0.5]];portConstraint=eastwest;" vertex="1" parent="CahL7AirRAyiVEByeSwV-1">
          <mxGeometry y="2570" width="400" height="20" as="geometry" />
        </mxCell>
        <mxCell id="CahL7AirRAyiVEByeSwV-249" value="struct sysv_sem         sysvsem;" style="text;strokeColor=default;fillColor=none;align=left;verticalAlign=middle;spacingLeft=4;spacingRight=4;overflow=hidden;rotatable=0;points=[[0,0.5],[1,0.5]];portConstraint=eastwest;" vertex="1" parent="CahL7AirRAyiVEByeSwV-1">
          <mxGeometry y="2590" width="400" height="20" as="geometry" />
        </mxCell>
        <mxCell id="CahL7AirRAyiVEByeSwV-250" value="struct sysv_shm         sysvshm;" style="text;strokeColor=default;fillColor=none;align=left;verticalAlign=middle;spacingLeft=4;spacingRight=4;overflow=hidden;rotatable=0;points=[[0,0.5],[1,0.5]];portConstraint=eastwest;" vertex="1" parent="CahL7AirRAyiVEByeSwV-1">
          <mxGeometry y="2610" width="400" height="20" as="geometry" />
        </mxCell>
        <mxCell id="CahL7AirRAyiVEByeSwV-251" value="unsigned long           last_switch_count;" style="text;strokeColor=default;fillColor=none;align=left;verticalAlign=middle;spacingLeft=4;spacingRight=4;overflow=hidden;rotatable=0;points=[[0,0.5],[1,0.5]];portConstraint=eastwest;" vertex="1" parent="CahL7AirRAyiVEByeSwV-1">
          <mxGeometry y="2630" width="400" height="20" as="geometry" />
        </mxCell>
        <mxCell id="CahL7AirRAyiVEByeSwV-252" value="unsigned long           last_switch_time;" style="text;strokeColor=default;fillColor=none;align=left;verticalAlign=middle;spacingLeft=4;spacingRight=4;overflow=hidden;rotatable=0;points=[[0,0.5],[1,0.5]];portConstraint=eastwest;" vertex="1" parent="CahL7AirRAyiVEByeSwV-1">
          <mxGeometry y="2650" width="400" height="20" as="geometry" />
        </mxCell>
        <mxCell id="CahL7AirRAyiVEByeSwV-253" value="struct fs_struct        *fs;" style="text;strokeColor=default;fillColor=none;align=left;verticalAlign=middle;spacingLeft=4;spacingRight=4;overflow=hidden;rotatable=0;points=[[0,0.5],[1,0.5]];portConstraint=eastwest;" vertex="1" parent="CahL7AirRAyiVEByeSwV-1">
          <mxGeometry y="2670" width="400" height="20" as="geometry" />
        </mxCell>
        <mxCell id="CahL7AirRAyiVEByeSwV-254" value="struct files_struct     *files;" style="text;strokeColor=default;fillColor=none;align=left;verticalAlign=middle;spacingLeft=4;spacingRight=4;overflow=hidden;rotatable=0;points=[[0,0.5],[1,0.5]];portConstraint=eastwest;" vertex="1" parent="CahL7AirRAyiVEByeSwV-1">
          <mxGeometry y="2690" width="400" height="20" as="geometry" />
        </mxCell>
        <mxCell id="CahL7AirRAyiVEByeSwV-255" value="struct io_uring_task        *io_uring;" style="text;strokeColor=default;fillColor=none;align=left;verticalAlign=middle;spacingLeft=4;spacingRight=4;overflow=hidden;rotatable=0;points=[[0,0.5],[1,0.5]];portConstraint=eastwest;" vertex="1" parent="CahL7AirRAyiVEByeSwV-1">
          <mxGeometry y="2710" width="400" height="20" as="geometry" />
        </mxCell>
        <mxCell id="CahL7AirRAyiVEByeSwV-256" value="struct nsproxy          *nsproxy;" style="text;strokeColor=default;fillColor=none;align=left;verticalAlign=middle;spacingLeft=4;spacingRight=4;overflow=hidden;rotatable=0;points=[[0,0.5],[1,0.5]];portConstraint=eastwest;" vertex="1" parent="CahL7AirRAyiVEByeSwV-1">
          <mxGeometry y="2730" width="400" height="20" as="geometry" />
        </mxCell>
        <mxCell id="CahL7AirRAyiVEByeSwV-257" value="struct signal_struct        *signal;" style="text;strokeColor=default;fillColor=none;align=left;verticalAlign=middle;spacingLeft=4;spacingRight=4;overflow=hidden;rotatable=0;points=[[0,0.5],[1,0.5]];portConstraint=eastwest;" vertex="1" parent="CahL7AirRAyiVEByeSwV-1">
          <mxGeometry y="2750" width="400" height="20" as="geometry" />
        </mxCell>
        <mxCell id="CahL7AirRAyiVEByeSwV-258" value="struct sighand_struct __rcu     *sighand;" style="text;strokeColor=default;fillColor=none;align=left;verticalAlign=middle;spacingLeft=4;spacingRight=4;overflow=hidden;rotatable=0;points=[[0,0.5],[1,0.5]];portConstraint=eastwest;" vertex="1" parent="CahL7AirRAyiVEByeSwV-1">
          <mxGeometry y="2770" width="400" height="20" as="geometry" />
        </mxCell>
        <mxCell id="CahL7AirRAyiVEByeSwV-259" value="sigset_t            blocked;" style="text;strokeColor=default;fillColor=none;align=left;verticalAlign=middle;spacingLeft=4;spacingRight=4;overflow=hidden;rotatable=0;points=[[0,0.5],[1,0.5]];portConstraint=eastwest;" vertex="1" parent="CahL7AirRAyiVEByeSwV-1">
          <mxGeometry y="2790" width="400" height="20" as="geometry" />
        </mxCell>
        <mxCell id="CahL7AirRAyiVEByeSwV-260" value="sigset_t            real_blocked;" style="text;strokeColor=default;fillColor=none;align=left;verticalAlign=middle;spacingLeft=4;spacingRight=4;overflow=hidden;rotatable=0;points=[[0,0.5],[1,0.5]];portConstraint=eastwest;" vertex="1" parent="CahL7AirRAyiVEByeSwV-1">
          <mxGeometry y="2810" width="400" height="20" as="geometry" />
        </mxCell>
        <mxCell id="CahL7AirRAyiVEByeSwV-261" value="sigset_t            saved_sigmask;" style="text;strokeColor=default;fillColor=none;align=left;verticalAlign=middle;spacingLeft=4;spacingRight=4;overflow=hidden;rotatable=0;points=[[0,0.5],[1,0.5]];portConstraint=eastwest;" vertex="1" parent="CahL7AirRAyiVEByeSwV-1">
          <mxGeometry y="2830" width="400" height="20" as="geometry" />
        </mxCell>
        <mxCell id="CahL7AirRAyiVEByeSwV-262" value="struct sigpending       pending;" style="text;strokeColor=default;fillColor=none;align=left;verticalAlign=middle;spacingLeft=4;spacingRight=4;overflow=hidden;rotatable=0;points=[[0,0.5],[1,0.5]];portConstraint=eastwest;" vertex="1" parent="CahL7AirRAyiVEByeSwV-1">
          <mxGeometry y="2850" width="400" height="20" as="geometry" />
        </mxCell>
        <mxCell id="CahL7AirRAyiVEByeSwV-263" value="unsigned long           sas_ss_sp;" style="text;strokeColor=default;fillColor=none;align=left;verticalAlign=middle;spacingLeft=4;spacingRight=4;overflow=hidden;rotatable=0;points=[[0,0.5],[1,0.5]];portConstraint=eastwest;" vertex="1" parent="CahL7AirRAyiVEByeSwV-1">
          <mxGeometry y="2870" width="400" height="20" as="geometry" />
        </mxCell>
        <mxCell id="CahL7AirRAyiVEByeSwV-264" value="size_t              sas_ss_size;" style="text;strokeColor=default;fillColor=none;align=left;verticalAlign=middle;spacingLeft=4;spacingRight=4;overflow=hidden;rotatable=0;points=[[0,0.5],[1,0.5]];portConstraint=eastwest;" vertex="1" parent="CahL7AirRAyiVEByeSwV-1">
          <mxGeometry y="2890" width="400" height="20" as="geometry" />
        </mxCell>
        <mxCell id="CahL7AirRAyiVEByeSwV-265" value="unsigned int            sas_ss_flags;" style="text;strokeColor=default;fillColor=none;align=left;verticalAlign=middle;spacingLeft=4;spacingRight=4;overflow=hidden;rotatable=0;points=[[0,0.5],[1,0.5]];portConstraint=eastwest;" vertex="1" parent="CahL7AirRAyiVEByeSwV-1">
          <mxGeometry y="2910" width="400" height="20" as="geometry" />
        </mxCell>
        <mxCell id="CahL7AirRAyiVEByeSwV-266" value="struct callback_head        *task_works;" style="text;strokeColor=default;fillColor=none;align=left;verticalAlign=middle;spacingLeft=4;spacingRight=4;overflow=hidden;rotatable=0;points=[[0,0.5],[1,0.5]];portConstraint=eastwest;" vertex="1" parent="CahL7AirRAyiVEByeSwV-1">
          <mxGeometry y="2930" width="400" height="20" as="geometry" />
        </mxCell>
        <mxCell id="CahL7AirRAyiVEByeSwV-267" value="struct audit_context        *audit_context;" style="text;strokeColor=default;fillColor=none;align=left;verticalAlign=middle;spacingLeft=4;spacingRight=4;overflow=hidden;rotatable=0;points=[[0,0.5],[1,0.5]];portConstraint=eastwest;" vertex="1" parent="CahL7AirRAyiVEByeSwV-1">
          <mxGeometry y="2950" width="400" height="20" as="geometry" />
        </mxCell>
        <mxCell id="CahL7AirRAyiVEByeSwV-268" value="kuid_t              loginuid;" style="text;strokeColor=default;fillColor=none;align=left;verticalAlign=middle;spacingLeft=4;spacingRight=4;overflow=hidden;rotatable=0;points=[[0,0.5],[1,0.5]];portConstraint=eastwest;" vertex="1" parent="CahL7AirRAyiVEByeSwV-1">
          <mxGeometry y="2970" width="400" height="20" as="geometry" />
        </mxCell>
        <mxCell id="CahL7AirRAyiVEByeSwV-269" value="unsigned int            sessionid;" style="text;strokeColor=default;fillColor=none;align=left;verticalAlign=middle;spacingLeft=4;spacingRight=4;overflow=hidden;rotatable=0;points=[[0,0.5],[1,0.5]];portConstraint=eastwest;" vertex="1" parent="CahL7AirRAyiVEByeSwV-1">
          <mxGeometry y="2990" width="400" height="20" as="geometry" />
        </mxCell>
        <mxCell id="CahL7AirRAyiVEByeSwV-270" value="struct seccomp          seccomp;" style="text;strokeColor=default;fillColor=none;align=left;verticalAlign=middle;spacingLeft=4;spacingRight=4;overflow=hidden;rotatable=0;points=[[0,0.5],[1,0.5]];portConstraint=eastwest;" vertex="1" parent="CahL7AirRAyiVEByeSwV-1">
          <mxGeometry y="3010" width="400" height="20" as="geometry" />
        </mxCell>
        <mxCell id="CahL7AirRAyiVEByeSwV-271" value="struct syscall_user_dispatch    syscall_dispatch;" style="text;strokeColor=default;fillColor=none;align=left;verticalAlign=middle;spacingLeft=4;spacingRight=4;overflow=hidden;rotatable=0;points=[[0,0.5],[1,0.5]];portConstraint=eastwest;" vertex="1" parent="CahL7AirRAyiVEByeSwV-1">
          <mxGeometry y="3030" width="400" height="20" as="geometry" />
        </mxCell>
        <mxCell id="CahL7AirRAyiVEByeSwV-272" value="u64             parent_exec_id;" style="text;strokeColor=default;fillColor=none;align=left;verticalAlign=middle;spacingLeft=4;spacingRight=4;overflow=hidden;rotatable=0;points=[[0,0.5],[1,0.5]];portConstraint=eastwest;" vertex="1" parent="CahL7AirRAyiVEByeSwV-1">
          <mxGeometry y="3050" width="400" height="20" as="geometry" />
        </mxCell>
        <mxCell id="CahL7AirRAyiVEByeSwV-273" value="u64             self_exec_id;" style="text;strokeColor=default;fillColor=none;align=left;verticalAlign=middle;spacingLeft=4;spacingRight=4;overflow=hidden;rotatable=0;points=[[0,0.5],[1,0.5]];portConstraint=eastwest;" vertex="1" parent="CahL7AirRAyiVEByeSwV-1">
          <mxGeometry y="3070" width="400" height="20" as="geometry" />
        </mxCell>
        <mxCell id="CahL7AirRAyiVEByeSwV-274" value="spinlock_t          alloc_lock;" style="text;strokeColor=default;fillColor=none;align=left;verticalAlign=middle;spacingLeft=4;spacingRight=4;overflow=hidden;rotatable=0;points=[[0,0.5],[1,0.5]];portConstraint=eastwest;" vertex="1" parent="CahL7AirRAyiVEByeSwV-1">
          <mxGeometry y="3090" width="400" height="20" as="geometry" />
        </mxCell>
        <mxCell id="CahL7AirRAyiVEByeSwV-275" value="raw_spinlock_t          pi_lock;" style="text;strokeColor=default;fillColor=none;align=left;verticalAlign=middle;spacingLeft=4;spacingRight=4;overflow=hidden;rotatable=0;points=[[0,0.5],[1,0.5]];portConstraint=eastwest;" vertex="1" parent="CahL7AirRAyiVEByeSwV-1">
          <mxGeometry y="3110" width="400" height="20" as="geometry" />
        </mxCell>
        <mxCell id="CahL7AirRAyiVEByeSwV-276" value="struct wake_q_node      wake_q;" style="text;strokeColor=default;fillColor=none;align=left;verticalAlign=middle;spacingLeft=4;spacingRight=4;overflow=hidden;rotatable=0;points=[[0,0.5],[1,0.5]];portConstraint=eastwest;" vertex="1" parent="CahL7AirRAyiVEByeSwV-1">
          <mxGeometry y="3130" width="400" height="20" as="geometry" />
        </mxCell>
        <mxCell id="CahL7AirRAyiVEByeSwV-277" value="struct rb_root_cached       pi_waiters;" style="text;strokeColor=default;fillColor=none;align=left;verticalAlign=middle;spacingLeft=4;spacingRight=4;overflow=hidden;rotatable=0;points=[[0,0.5],[1,0.5]];portConstraint=eastwest;" vertex="1" parent="CahL7AirRAyiVEByeSwV-1">
          <mxGeometry y="3150" width="400" height="20" as="geometry" />
        </mxCell>
        <mxCell id="CahL7AirRAyiVEByeSwV-278" value="struct task_struct      *pi_top_task;" style="text;strokeColor=default;fillColor=none;align=left;verticalAlign=middle;spacingLeft=4;spacingRight=4;overflow=hidden;rotatable=0;points=[[0,0.5],[1,0.5]];portConstraint=eastwest;" vertex="1" parent="CahL7AirRAyiVEByeSwV-1">
          <mxGeometry y="3170" width="400" height="20" as="geometry" />
        </mxCell>
        <mxCell id="CahL7AirRAyiVEByeSwV-279" value="struct rt_mutex_waiter      *pi_blocked_on;" style="text;strokeColor=default;fillColor=none;align=left;verticalAlign=middle;spacingLeft=4;spacingRight=4;overflow=hidden;rotatable=0;points=[[0,0.5],[1,0.5]];portConstraint=eastwest;" vertex="1" parent="CahL7AirRAyiVEByeSwV-1">
          <mxGeometry y="3190" width="400" height="20" as="geometry" />
        </mxCell>
        <mxCell id="CahL7AirRAyiVEByeSwV-280" value="struct mutex_waiter     *blocked_on;" style="text;strokeColor=default;fillColor=none;align=left;verticalAlign=middle;spacingLeft=4;spacingRight=4;overflow=hidden;rotatable=0;points=[[0,0.5],[1,0.5]];portConstraint=eastwest;" vertex="1" parent="CahL7AirRAyiVEByeSwV-1">
          <mxGeometry y="3210" width="400" height="20" as="geometry" />
        </mxCell>
        <mxCell id="CahL7AirRAyiVEByeSwV-281" value="int             non_block_count;" style="text;strokeColor=default;fillColor=none;align=left;verticalAlign=middle;spacingLeft=4;spacingRight=4;overflow=hidden;rotatable=0;points=[[0,0.5],[1,0.5]];portConstraint=eastwest;" vertex="1" parent="CahL7AirRAyiVEByeSwV-1">
          <mxGeometry y="3230" width="400" height="20" as="geometry" />
        </mxCell>
        <mxCell id="CahL7AirRAyiVEByeSwV-282" value="struct irqtrace_events      irqtrace;" style="text;strokeColor=default;fillColor=none;align=left;verticalAlign=middle;spacingLeft=4;spacingRight=4;overflow=hidden;rotatable=0;points=[[0,0.5],[1,0.5]];portConstraint=eastwest;" vertex="1" parent="CahL7AirRAyiVEByeSwV-1">
          <mxGeometry y="3250" width="400" height="20" as="geometry" />
        </mxCell>
        <mxCell id="CahL7AirRAyiVEByeSwV-283" value="unsigned int            hardirq_threaded;" style="text;strokeColor=default;fillColor=none;align=left;verticalAlign=middle;spacingLeft=4;spacingRight=4;overflow=hidden;rotatable=0;points=[[0,0.5],[1,0.5]];portConstraint=eastwest;" vertex="1" parent="CahL7AirRAyiVEByeSwV-1">
          <mxGeometry y="3270" width="400" height="20" as="geometry" />
        </mxCell>
        <mxCell id="CahL7AirRAyiVEByeSwV-284" value="u64             hardirq_chain_key;" style="text;strokeColor=default;fillColor=none;align=left;verticalAlign=middle;spacingLeft=4;spacingRight=4;overflow=hidden;rotatable=0;points=[[0,0.5],[1,0.5]];portConstraint=eastwest;" vertex="1" parent="CahL7AirRAyiVEByeSwV-1">
          <mxGeometry y="3290" width="400" height="20" as="geometry" />
        </mxCell>
        <mxCell id="CahL7AirRAyiVEByeSwV-285" value="int             softirqs_enabled;" style="text;strokeColor=default;fillColor=none;align=left;verticalAlign=middle;spacingLeft=4;spacingRight=4;overflow=hidden;rotatable=0;points=[[0,0.5],[1,0.5]];portConstraint=eastwest;" vertex="1" parent="CahL7AirRAyiVEByeSwV-1">
          <mxGeometry y="3310" width="400" height="20" as="geometry" />
        </mxCell>
        <mxCell id="CahL7AirRAyiVEByeSwV-286" value="int             softirq_context;" style="text;strokeColor=default;fillColor=none;align=left;verticalAlign=middle;spacingLeft=4;spacingRight=4;overflow=hidden;rotatable=0;points=[[0,0.5],[1,0.5]];portConstraint=eastwest;" vertex="1" parent="CahL7AirRAyiVEByeSwV-1">
          <mxGeometry y="3330" width="400" height="20" as="geometry" />
        </mxCell>
        <mxCell id="CahL7AirRAyiVEByeSwV-287" value="int             irq_config;" style="text;strokeColor=default;fillColor=none;align=left;verticalAlign=middle;spacingLeft=4;spacingRight=4;overflow=hidden;rotatable=0;points=[[0,0.5],[1,0.5]];portConstraint=eastwest;" vertex="1" parent="CahL7AirRAyiVEByeSwV-1">
          <mxGeometry y="3350" width="400" height="20" as="geometry" />
        </mxCell>
        <mxCell id="CahL7AirRAyiVEByeSwV-288" value="int             softirq_disable_cnt;" style="text;strokeColor=default;fillColor=none;align=left;verticalAlign=middle;spacingLeft=4;spacingRight=4;overflow=hidden;rotatable=0;points=[[0,0.5],[1,0.5]];portConstraint=eastwest;" vertex="1" parent="CahL7AirRAyiVEByeSwV-1">
          <mxGeometry y="3370" width="400" height="20" as="geometry" />
        </mxCell>
        <mxCell id="CahL7AirRAyiVEByeSwV-289" value="u64             curr_chain_key;" style="text;strokeColor=default;fillColor=none;align=left;verticalAlign=middle;spacingLeft=4;spacingRight=4;overflow=hidden;rotatable=0;points=[[0,0.5],[1,0.5]];portConstraint=eastwest;" vertex="1" parent="CahL7AirRAyiVEByeSwV-1">
          <mxGeometry y="3390" width="400" height="20" as="geometry" />
        </mxCell>
        <mxCell id="CahL7AirRAyiVEByeSwV-290" value="int             lockdep_depth;" style="text;strokeColor=default;fillColor=none;align=left;verticalAlign=middle;spacingLeft=4;spacingRight=4;overflow=hidden;rotatable=0;points=[[0,0.5],[1,0.5]];portConstraint=eastwest;" vertex="1" parent="CahL7AirRAyiVEByeSwV-1">
          <mxGeometry y="3410" width="400" height="20" as="geometry" />
        </mxCell>
        <mxCell id="CahL7AirRAyiVEByeSwV-291" value="unsigned int            lockdep_recursion;" style="text;strokeColor=default;fillColor=none;align=left;verticalAlign=middle;spacingLeft=4;spacingRight=4;overflow=hidden;rotatable=0;points=[[0,0.5],[1,0.5]];portConstraint=eastwest;" vertex="1" parent="CahL7AirRAyiVEByeSwV-1">
          <mxGeometry y="3430" width="400" height="20" as="geometry" />
        </mxCell>
        <mxCell id="CahL7AirRAyiVEByeSwV-292" value="struct held_lock        held_locks[MAX_LOCK_DEPTH];" style="text;strokeColor=default;fillColor=none;align=left;verticalAlign=middle;spacingLeft=4;spacingRight=4;overflow=hidden;rotatable=0;points=[[0,0.5],[1,0.5]];portConstraint=eastwest;" vertex="1" parent="CahL7AirRAyiVEByeSwV-1">
          <mxGeometry y="3450" width="400" height="20" as="geometry" />
        </mxCell>
        <mxCell id="CahL7AirRAyiVEByeSwV-293" value="unsigned int            in_ubsan;" style="text;strokeColor=default;fillColor=none;align=left;verticalAlign=middle;spacingLeft=4;spacingRight=4;overflow=hidden;rotatable=0;points=[[0,0.5],[1,0.5]];portConstraint=eastwest;" vertex="1" parent="CahL7AirRAyiVEByeSwV-1">
          <mxGeometry y="3470" width="400" height="20" as="geometry" />
        </mxCell>
        <mxCell id="CahL7AirRAyiVEByeSwV-294" value="void                *journal_info;" style="text;strokeColor=default;fillColor=none;align=left;verticalAlign=middle;spacingLeft=4;spacingRight=4;overflow=hidden;rotatable=0;points=[[0,0.5],[1,0.5]];portConstraint=eastwest;" vertex="1" parent="CahL7AirRAyiVEByeSwV-1">
          <mxGeometry y="3490" width="400" height="20" as="geometry" />
        </mxCell>
        <mxCell id="CahL7AirRAyiVEByeSwV-295" value="struct bio_list         *bio_list;" style="text;strokeColor=default;fillColor=none;align=left;verticalAlign=middle;spacingLeft=4;spacingRight=4;overflow=hidden;rotatable=0;points=[[0,0.5],[1,0.5]];portConstraint=eastwest;" vertex="1" parent="CahL7AirRAyiVEByeSwV-1">
          <mxGeometry y="3510" width="400" height="20" as="geometry" />
        </mxCell>
        <mxCell id="CahL7AirRAyiVEByeSwV-296" value="struct blk_plug         *plug;" style="text;strokeColor=default;fillColor=none;align=left;verticalAlign=middle;spacingLeft=4;spacingRight=4;overflow=hidden;rotatable=0;points=[[0,0.5],[1,0.5]];portConstraint=eastwest;" vertex="1" parent="CahL7AirRAyiVEByeSwV-1">
          <mxGeometry y="3530" width="400" height="20" as="geometry" />
        </mxCell>
        <mxCell id="CahL7AirRAyiVEByeSwV-297" value="struct reclaim_state        *reclaim_state;" style="text;strokeColor=default;fillColor=none;align=left;verticalAlign=middle;spacingLeft=4;spacingRight=4;overflow=hidden;rotatable=0;points=[[0,0.5],[1,0.5]];portConstraint=eastwest;" vertex="1" parent="CahL7AirRAyiVEByeSwV-1">
          <mxGeometry y="3550" width="400" height="20" as="geometry" />
        </mxCell>
        <mxCell id="CahL7AirRAyiVEByeSwV-298" value="struct backing_dev_info     *backing_dev_info;" style="text;strokeColor=default;fillColor=none;align=left;verticalAlign=middle;spacingLeft=4;spacingRight=4;overflow=hidden;rotatable=0;points=[[0,0.5],[1,0.5]];portConstraint=eastwest;" vertex="1" parent="CahL7AirRAyiVEByeSwV-1">
          <mxGeometry y="3570" width="400" height="20" as="geometry" />
        </mxCell>
        <mxCell id="CahL7AirRAyiVEByeSwV-299" value="struct io_context       *io_context;" style="text;strokeColor=default;fillColor=none;align=left;verticalAlign=middle;spacingLeft=4;spacingRight=4;overflow=hidden;rotatable=0;points=[[0,0.5],[1,0.5]];portConstraint=eastwest;" vertex="1" parent="CahL7AirRAyiVEByeSwV-1">
          <mxGeometry y="3590" width="400" height="20" as="geometry" />
        </mxCell>
        <mxCell id="CahL7AirRAyiVEByeSwV-300" value="struct capture_control      *capture_control;" style="text;strokeColor=default;fillColor=none;align=left;verticalAlign=middle;spacingLeft=4;spacingRight=4;overflow=hidden;rotatable=0;points=[[0,0.5],[1,0.5]];portConstraint=eastwest;" vertex="1" parent="CahL7AirRAyiVEByeSwV-1">
          <mxGeometry y="3610" width="400" height="20" as="geometry" />
        </mxCell>
        <mxCell id="CahL7AirRAyiVEByeSwV-301" value="unsigned long           ptrace_message;" style="text;strokeColor=default;fillColor=none;align=left;verticalAlign=middle;spacingLeft=4;spacingRight=4;overflow=hidden;rotatable=0;points=[[0,0.5],[1,0.5]];portConstraint=eastwest;" vertex="1" parent="CahL7AirRAyiVEByeSwV-1">
          <mxGeometry y="3630" width="400" height="20" as="geometry" />
        </mxCell>
        <mxCell id="CahL7AirRAyiVEByeSwV-302" value="kernel_siginfo_t        *last_siginfo;" style="text;strokeColor=default;fillColor=none;align=left;verticalAlign=middle;spacingLeft=4;spacingRight=4;overflow=hidden;rotatable=0;points=[[0,0.5],[1,0.5]];portConstraint=eastwest;" vertex="1" parent="CahL7AirRAyiVEByeSwV-1">
          <mxGeometry y="3650" width="400" height="20" as="geometry" />
        </mxCell>
        <mxCell id="CahL7AirRAyiVEByeSwV-303" value="struct task_io_accounting   ioac;" style="text;strokeColor=default;fillColor=none;align=left;verticalAlign=middle;spacingLeft=4;spacingRight=4;overflow=hidden;rotatable=0;points=[[0,0.5],[1,0.5]];portConstraint=eastwest;" vertex="1" parent="CahL7AirRAyiVEByeSwV-1">
          <mxGeometry y="3670" width="400" height="20" as="geometry" />
        </mxCell>
        <mxCell id="CahL7AirRAyiVEByeSwV-304" value="unsigned int            psi_flags;" style="text;strokeColor=default;fillColor=none;align=left;verticalAlign=middle;spacingLeft=4;spacingRight=4;overflow=hidden;rotatable=0;points=[[0,0.5],[1,0.5]];portConstraint=eastwest;" vertex="1" parent="CahL7AirRAyiVEByeSwV-1">
          <mxGeometry y="3690" width="400" height="20" as="geometry" />
        </mxCell>
        <mxCell id="CahL7AirRAyiVEByeSwV-305" value="u64             acct_rss_mem1;" style="text;strokeColor=default;fillColor=none;align=left;verticalAlign=middle;spacingLeft=4;spacingRight=4;overflow=hidden;rotatable=0;points=[[0,0.5],[1,0.5]];portConstraint=eastwest;" vertex="1" parent="CahL7AirRAyiVEByeSwV-1">
          <mxGeometry y="3710" width="400" height="20" as="geometry" />
        </mxCell>
        <mxCell id="CahL7AirRAyiVEByeSwV-306" value="u64             acct_vm_mem1;" style="text;strokeColor=default;fillColor=none;align=left;verticalAlign=middle;spacingLeft=4;spacingRight=4;overflow=hidden;rotatable=0;points=[[0,0.5],[1,0.5]];portConstraint=eastwest;" vertex="1" parent="CahL7AirRAyiVEByeSwV-1">
          <mxGeometry y="3730" width="400" height="20" as="geometry" />
        </mxCell>
        <mxCell id="CahL7AirRAyiVEByeSwV-307" value="u64             acct_timexpd;" style="text;strokeColor=default;fillColor=none;align=left;verticalAlign=middle;spacingLeft=4;spacingRight=4;overflow=hidden;rotatable=0;points=[[0,0.5],[1,0.5]];portConstraint=eastwest;" vertex="1" parent="CahL7AirRAyiVEByeSwV-1">
          <mxGeometry y="3750" width="400" height="20" as="geometry" />
        </mxCell>
        <mxCell id="CahL7AirRAyiVEByeSwV-308" value="nodemask_t          mems_allowed;" style="text;strokeColor=default;fillColor=none;align=left;verticalAlign=middle;spacingLeft=4;spacingRight=4;overflow=hidden;rotatable=0;points=[[0,0.5],[1,0.5]];portConstraint=eastwest;" vertex="1" parent="CahL7AirRAyiVEByeSwV-1">
          <mxGeometry y="3770" width="400" height="20" as="geometry" />
        </mxCell>
        <mxCell id="CahL7AirRAyiVEByeSwV-309" value="seqcount_spinlock_t     mems_allowed_seq;" style="text;strokeColor=default;fillColor=none;align=left;verticalAlign=middle;spacingLeft=4;spacingRight=4;overflow=hidden;rotatable=0;points=[[0,0.5],[1,0.5]];portConstraint=eastwest;" vertex="1" parent="CahL7AirRAyiVEByeSwV-1">
          <mxGeometry y="3790" width="400" height="20" as="geometry" />
        </mxCell>
        <mxCell id="CahL7AirRAyiVEByeSwV-310" value="seqcount_spinlock_t     mems_allowed_seq;" style="text;strokeColor=default;fillColor=none;align=left;verticalAlign=middle;spacingLeft=4;spacingRight=4;overflow=hidden;rotatable=0;points=[[0,0.5],[1,0.5]];portConstraint=eastwest;" vertex="1" parent="CahL7AirRAyiVEByeSwV-1">
          <mxGeometry y="3810" width="400" height="20" as="geometry" />
        </mxCell>
        <mxCell id="CahL7AirRAyiVEByeSwV-311" value="int             cpuset_slab_spread_rotor;" style="text;strokeColor=default;fillColor=none;align=left;verticalAlign=middle;spacingLeft=4;spacingRight=4;overflow=hidden;rotatable=0;points=[[0,0.5],[1,0.5]];portConstraint=eastwest;" vertex="1" parent="CahL7AirRAyiVEByeSwV-1">
          <mxGeometry y="3830" width="400" height="20" as="geometry" />
        </mxCell>
        <mxCell id="CahL7AirRAyiVEByeSwV-312" value="struct css_set __rcu        *cgroups;" style="text;strokeColor=default;fillColor=none;align=left;verticalAlign=middle;spacingLeft=4;spacingRight=4;overflow=hidden;rotatable=0;points=[[0,0.5],[1,0.5]];portConstraint=eastwest;" vertex="1" parent="CahL7AirRAyiVEByeSwV-1">
          <mxGeometry y="3850" width="400" height="20" as="geometry" />
        </mxCell>
        <mxCell id="CahL7AirRAyiVEByeSwV-313" value="struct list_head        cg_list;" style="text;strokeColor=default;fillColor=none;align=left;verticalAlign=middle;spacingLeft=4;spacingRight=4;overflow=hidden;rotatable=0;points=[[0,0.5],[1,0.5]];portConstraint=eastwest;" vertex="1" parent="CahL7AirRAyiVEByeSwV-1">
          <mxGeometry y="3870" width="400" height="20" as="geometry" />
        </mxCell>
        <mxCell id="CahL7AirRAyiVEByeSwV-314" value="u32             closid;" style="text;strokeColor=default;fillColor=none;align=left;verticalAlign=middle;spacingLeft=4;spacingRight=4;overflow=hidden;rotatable=0;points=[[0,0.5],[1,0.5]];portConstraint=eastwest;" vertex="1" parent="CahL7AirRAyiVEByeSwV-1">
          <mxGeometry y="3890" width="400" height="20" as="geometry" />
        </mxCell>
        <mxCell id="CahL7AirRAyiVEByeSwV-315" value="u32             rmid;" style="text;strokeColor=default;fillColor=none;align=left;verticalAlign=middle;spacingLeft=4;spacingRight=4;overflow=hidden;rotatable=0;points=[[0,0.5],[1,0.5]];portConstraint=eastwest;" vertex="1" parent="CahL7AirRAyiVEByeSwV-1">
          <mxGeometry y="3910" width="400" height="20" as="geometry" />
        </mxCell>
        <mxCell id="CahL7AirRAyiVEByeSwV-316" value="struct robust_list_head __user  *robust_list;" style="text;strokeColor=default;fillColor=none;align=left;verticalAlign=middle;spacingLeft=4;spacingRight=4;overflow=hidden;rotatable=0;points=[[0,0.5],[1,0.5]];portConstraint=eastwest;" vertex="1" parent="CahL7AirRAyiVEByeSwV-1">
          <mxGeometry y="3930" width="400" height="20" as="geometry" />
        </mxCell>
        <mxCell id="CahL7AirRAyiVEByeSwV-317" value="struct compat_robust_list_head __user *compat_robust_list;" style="text;strokeColor=default;fillColor=none;align=left;verticalAlign=middle;spacingLeft=4;spacingRight=4;overflow=hidden;rotatable=0;points=[[0,0.5],[1,0.5]];portConstraint=eastwest;" vertex="1" parent="CahL7AirRAyiVEByeSwV-1">
          <mxGeometry y="3950" width="400" height="20" as="geometry" />
        </mxCell>
        <mxCell id="CahL7AirRAyiVEByeSwV-318" value="struct list_head        pi_state_list;" style="text;strokeColor=default;fillColor=none;align=left;verticalAlign=middle;spacingLeft=4;spacingRight=4;overflow=hidden;rotatable=0;points=[[0,0.5],[1,0.5]];portConstraint=eastwest;" vertex="1" parent="CahL7AirRAyiVEByeSwV-1">
          <mxGeometry y="3970" width="400" height="20" as="geometry" />
        </mxCell>
        <mxCell id="CahL7AirRAyiVEByeSwV-319" value="struct futex_pi_state       *pi_state_cache;" style="text;strokeColor=default;fillColor=none;align=left;verticalAlign=middle;spacingLeft=4;spacingRight=4;overflow=hidden;rotatable=0;points=[[0,0.5],[1,0.5]];portConstraint=eastwest;" vertex="1" parent="CahL7AirRAyiVEByeSwV-1">
          <mxGeometry y="3990" width="400" height="20" as="geometry" />
        </mxCell>
        <mxCell id="CahL7AirRAyiVEByeSwV-320" value="struct mutex            futex_exit_mutex;" style="text;strokeColor=default;fillColor=none;align=left;verticalAlign=middle;spacingLeft=4;spacingRight=4;overflow=hidden;rotatable=0;points=[[0,0.5],[1,0.5]];portConstraint=eastwest;" vertex="1" parent="CahL7AirRAyiVEByeSwV-1">
          <mxGeometry y="4010" width="400" height="20" as="geometry" />
        </mxCell>
        <mxCell id="CahL7AirRAyiVEByeSwV-321" value="unsigned int            futex_state;" style="text;strokeColor=default;fillColor=none;align=left;verticalAlign=middle;spacingLeft=4;spacingRight=4;overflow=hidden;rotatable=0;points=[[0,0.5],[1,0.5]];portConstraint=eastwest;" vertex="1" parent="CahL7AirRAyiVEByeSwV-1">
          <mxGeometry y="4030" width="400" height="20" as="geometry" />
        </mxCell>
        <mxCell id="CahL7AirRAyiVEByeSwV-322" value="struct perf_event_context   *perf_event_ctxp[perf_nr_task_contexts];" style="text;strokeColor=default;fillColor=none;align=left;verticalAlign=middle;spacingLeft=4;spacingRight=4;overflow=hidden;rotatable=0;points=[[0,0.5],[1,0.5]];portConstraint=eastwest;" vertex="1" parent="CahL7AirRAyiVEByeSwV-1">
          <mxGeometry y="4050" width="400" height="20" as="geometry" />
        </mxCell>
        <mxCell id="CahL7AirRAyiVEByeSwV-323" value="struct mutex            perf_event_mutex;" style="text;strokeColor=default;fillColor=none;align=left;verticalAlign=middle;spacingLeft=4;spacingRight=4;overflow=hidden;rotatable=0;points=[[0,0.5],[1,0.5]];portConstraint=eastwest;" vertex="1" parent="CahL7AirRAyiVEByeSwV-1">
          <mxGeometry y="4070" width="400" height="20" as="geometry" />
        </mxCell>
        <mxCell id="CahL7AirRAyiVEByeSwV-324" value="struct list_head        perf_event_list;" style="text;strokeColor=default;fillColor=none;align=left;verticalAlign=middle;spacingLeft=4;spacingRight=4;overflow=hidden;rotatable=0;points=[[0,0.5],[1,0.5]];portConstraint=eastwest;" vertex="1" parent="CahL7AirRAyiVEByeSwV-1">
          <mxGeometry y="4090" width="400" height="20" as="geometry" />
        </mxCell>
        <mxCell id="CahL7AirRAyiVEByeSwV-325" value="unsigned long           preempt_disable_ip;" style="text;strokeColor=default;fillColor=none;align=left;verticalAlign=middle;spacingLeft=4;spacingRight=4;overflow=hidden;rotatable=0;points=[[0,0.5],[1,0.5]];portConstraint=eastwest;" vertex="1" parent="CahL7AirRAyiVEByeSwV-1">
          <mxGeometry y="4110" width="400" height="20" as="geometry" />
        </mxCell>
        <mxCell id="CahL7AirRAyiVEByeSwV-326" value="struct mempolicy        *mempolicy;" style="text;strokeColor=default;fillColor=none;align=left;verticalAlign=middle;spacingLeft=4;spacingRight=4;overflow=hidden;rotatable=0;points=[[0,0.5],[1,0.5]];portConstraint=eastwest;" vertex="1" parent="CahL7AirRAyiVEByeSwV-1">
          <mxGeometry y="4130" width="400" height="20" as="geometry" />
        </mxCell>
        <mxCell id="CahL7AirRAyiVEByeSwV-327" value="short               il_prev;" style="text;strokeColor=default;fillColor=none;align=left;verticalAlign=middle;spacingLeft=4;spacingRight=4;overflow=hidden;rotatable=0;points=[[0,0.5],[1,0.5]];portConstraint=eastwest;" vertex="1" parent="CahL7AirRAyiVEByeSwV-1">
          <mxGeometry y="4150" width="400" height="20" as="geometry" />
        </mxCell>
        <mxCell id="CahL7AirRAyiVEByeSwV-328" value="short               pref_node_fork;" style="text;strokeColor=default;fillColor=none;align=left;verticalAlign=middle;spacingLeft=4;spacingRight=4;overflow=hidden;rotatable=0;points=[[0,0.5],[1,0.5]];portConstraint=eastwest;" vertex="1" parent="CahL7AirRAyiVEByeSwV-1">
          <mxGeometry y="4170" width="400" height="20" as="geometry" />
        </mxCell>
        <mxCell id="CahL7AirRAyiVEByeSwV-329" value="int             numa_scan_seq;" style="text;strokeColor=default;fillColor=none;align=left;verticalAlign=middle;spacingLeft=4;spacingRight=4;overflow=hidden;rotatable=0;points=[[0,0.5],[1,0.5]];portConstraint=eastwest;" vertex="1" parent="CahL7AirRAyiVEByeSwV-1">
          <mxGeometry y="4190" width="400" height="20" as="geometry" />
        </mxCell>
        <mxCell id="CahL7AirRAyiVEByeSwV-330" value="unsigned int            numa_scan_period;" style="text;strokeColor=default;fillColor=none;align=left;verticalAlign=middle;spacingLeft=4;spacingRight=4;overflow=hidden;rotatable=0;points=[[0,0.5],[1,0.5]];portConstraint=eastwest;" vertex="1" parent="CahL7AirRAyiVEByeSwV-1">
          <mxGeometry y="4210" width="400" height="20" as="geometry" />
        </mxCell>
        <mxCell id="CahL7AirRAyiVEByeSwV-331" value="unsigned int            numa_scan_period_max;" style="text;strokeColor=default;fillColor=none;align=left;verticalAlign=middle;spacingLeft=4;spacingRight=4;overflow=hidden;rotatable=0;points=[[0,0.5],[1,0.5]];portConstraint=eastwest;" vertex="1" parent="CahL7AirRAyiVEByeSwV-1">
          <mxGeometry y="4230" width="400" height="20" as="geometry" />
        </mxCell>
        <mxCell id="CahL7AirRAyiVEByeSwV-332" value="int             numa_preferred_nid;" style="text;strokeColor=default;fillColor=none;align=left;verticalAlign=middle;spacingLeft=4;spacingRight=4;overflow=hidden;rotatable=0;points=[[0,0.5],[1,0.5]];portConstraint=eastwest;" vertex="1" parent="CahL7AirRAyiVEByeSwV-1">
          <mxGeometry y="4250" width="400" height="20" as="geometry" />
        </mxCell>
        <mxCell id="CahL7AirRAyiVEByeSwV-333" value="unsigned long           numa_migrate_retry;" style="text;strokeColor=default;fillColor=none;align=left;verticalAlign=middle;spacingLeft=4;spacingRight=4;overflow=hidden;rotatable=0;points=[[0,0.5],[1,0.5]];portConstraint=eastwest;" vertex="1" parent="CahL7AirRAyiVEByeSwV-1">
          <mxGeometry y="4270" width="400" height="20" as="geometry" />
        </mxCell>
        <mxCell id="CahL7AirRAyiVEByeSwV-334" value="u64             node_stamp;" style="text;strokeColor=default;fillColor=none;align=left;verticalAlign=middle;spacingLeft=4;spacingRight=4;overflow=hidden;rotatable=0;points=[[0,0.5],[1,0.5]];portConstraint=eastwest;" vertex="1" parent="CahL7AirRAyiVEByeSwV-1">
          <mxGeometry y="4290" width="400" height="20" as="geometry" />
        </mxCell>
        <mxCell id="CahL7AirRAyiVEByeSwV-335" value="u64             last_task_numa_placement;" style="text;strokeColor=default;fillColor=none;align=left;verticalAlign=middle;spacingLeft=4;spacingRight=4;overflow=hidden;rotatable=0;points=[[0,0.5],[1,0.5]];portConstraint=eastwest;" vertex="1" parent="CahL7AirRAyiVEByeSwV-1">
          <mxGeometry y="4310" width="400" height="20" as="geometry" />
        </mxCell>
        <mxCell id="CahL7AirRAyiVEByeSwV-336" value="u64             last_sum_exec_runtime;" style="text;strokeColor=default;fillColor=none;align=left;verticalAlign=middle;spacingLeft=4;spacingRight=4;overflow=hidden;rotatable=0;points=[[0,0.5],[1,0.5]];portConstraint=eastwest;" vertex="1" parent="CahL7AirRAyiVEByeSwV-1">
          <mxGeometry y="4330" width="400" height="20" as="geometry" />
        </mxCell>
        <mxCell id="CahL7AirRAyiVEByeSwV-337" value="struct callback_head        numa_work;" style="text;strokeColor=default;fillColor=none;align=left;verticalAlign=middle;spacingLeft=4;spacingRight=4;overflow=hidden;rotatable=0;points=[[0,0.5],[1,0.5]];portConstraint=eastwest;" vertex="1" parent="CahL7AirRAyiVEByeSwV-1">
          <mxGeometry y="4350" width="400" height="20" as="geometry" />
        </mxCell>
        <mxCell id="CahL7AirRAyiVEByeSwV-338" value="struct numa_group __rcu     *numa_group;" style="text;strokeColor=default;fillColor=none;align=left;verticalAlign=middle;spacingLeft=4;spacingRight=4;overflow=hidden;rotatable=0;points=[[0,0.5],[1,0.5]];portConstraint=eastwest;" vertex="1" parent="CahL7AirRAyiVEByeSwV-1">
          <mxGeometry y="4370" width="400" height="20" as="geometry" />
        </mxCell>
        <mxCell id="CahL7AirRAyiVEByeSwV-339" value="unsigned long           *numa_faults;" style="text;strokeColor=default;fillColor=none;align=left;verticalAlign=middle;spacingLeft=4;spacingRight=4;overflow=hidden;rotatable=0;points=[[0,0.5],[1,0.5]];portConstraint=eastwest;" vertex="1" parent="CahL7AirRAyiVEByeSwV-1">
          <mxGeometry y="4390" width="400" height="20" as="geometry" />
        </mxCell>
        <mxCell id="CahL7AirRAyiVEByeSwV-340" value="unsigned long           total_numa_faults;" style="text;strokeColor=default;fillColor=none;align=left;verticalAlign=middle;spacingLeft=4;spacingRight=4;overflow=hidden;rotatable=0;points=[[0,0.5],[1,0.5]];portConstraint=eastwest;" vertex="1" parent="CahL7AirRAyiVEByeSwV-1">
          <mxGeometry y="4410" width="400" height="20" as="geometry" />
        </mxCell>
        <mxCell id="CahL7AirRAyiVEByeSwV-341" value="unsigned long           numa_faults_locality[3];" style="text;strokeColor=default;fillColor=none;align=left;verticalAlign=middle;spacingLeft=4;spacingRight=4;overflow=hidden;rotatable=0;points=[[0,0.5],[1,0.5]];portConstraint=eastwest;" vertex="1" parent="CahL7AirRAyiVEByeSwV-1">
          <mxGeometry y="4430" width="400" height="20" as="geometry" />
        </mxCell>
        <mxCell id="CahL7AirRAyiVEByeSwV-342" value="unsigned long           numa_pages_migrated;" style="text;strokeColor=default;fillColor=none;align=left;verticalAlign=middle;spacingLeft=4;spacingRight=4;overflow=hidden;rotatable=0;points=[[0,0.5],[1,0.5]];portConstraint=eastwest;" vertex="1" parent="CahL7AirRAyiVEByeSwV-1">
          <mxGeometry y="4450" width="400" height="20" as="geometry" />
        </mxCell>
        <mxCell id="CahL7AirRAyiVEByeSwV-343" value="struct rseq __user *rseq;" style="text;strokeColor=default;fillColor=none;align=left;verticalAlign=middle;spacingLeft=4;spacingRight=4;overflow=hidden;rotatable=0;points=[[0,0.5],[1,0.5]];portConstraint=eastwest;" vertex="1" parent="CahL7AirRAyiVEByeSwV-1">
          <mxGeometry y="4470" width="400" height="20" as="geometry" />
        </mxCell>
        <mxCell id="CahL7AirRAyiVEByeSwV-344" value="u32 rseq_sig;" style="text;strokeColor=default;fillColor=none;align=left;verticalAlign=middle;spacingLeft=4;spacingRight=4;overflow=hidden;rotatable=0;points=[[0,0.5],[1,0.5]];portConstraint=eastwest;" vertex="1" parent="CahL7AirRAyiVEByeSwV-1">
          <mxGeometry y="4490" width="400" height="20" as="geometry" />
        </mxCell>
        <mxCell id="CahL7AirRAyiVEByeSwV-345" value="unsigned long rseq_event_mask;" style="text;strokeColor=default;fillColor=none;align=left;verticalAlign=middle;spacingLeft=4;spacingRight=4;overflow=hidden;rotatable=0;points=[[0,0.5],[1,0.5]];portConstraint=eastwest;" vertex="1" parent="CahL7AirRAyiVEByeSwV-1">
          <mxGeometry y="4510" width="400" height="20" as="geometry" />
        </mxCell>
        <mxCell id="CahL7AirRAyiVEByeSwV-346" value="struct tlbflush_unmap_batch tlb_ubc;" style="text;strokeColor=default;fillColor=none;align=left;verticalAlign=middle;spacingLeft=4;spacingRight=4;overflow=hidden;rotatable=0;points=[[0,0.5],[1,0.5]];portConstraint=eastwest;" vertex="1" parent="CahL7AirRAyiVEByeSwV-1">
          <mxGeometry y="4530" width="400" height="20" as="geometry" />
        </mxCell>
        <mxCell id="CahL7AirRAyiVEByeSwV-347" value="union" style="text;strokeColor=default;fillColor=none;align=left;verticalAlign=middle;spacingLeft=4;spacingRight=4;overflow=hidden;rotatable=0;points=[[0,0.5],[1,0.5]];portConstraint=eastwest;" vertex="1" parent="CahL7AirRAyiVEByeSwV-1">
          <mxGeometry y="4550" width="400" height="20" as="geometry" />
        </mxCell>
        <mxCell id="CahL7AirRAyiVEByeSwV-348" value="struct pipe_inode_info      *splice_pipe;" style="text;strokeColor=default;fillColor=none;align=left;verticalAlign=middle;spacingLeft=4;spacingRight=4;overflow=hidden;rotatable=0;points=[[0,0.5],[1,0.5]];portConstraint=eastwest;" vertex="1" parent="CahL7AirRAyiVEByeSwV-1">
          <mxGeometry y="4570" width="400" height="20" as="geometry" />
        </mxCell>
        <mxCell id="CahL7AirRAyiVEByeSwV-355" value="struct page_frag        task_frag;" style="text;strokeColor=default;fillColor=none;align=left;verticalAlign=middle;spacingLeft=4;spacingRight=4;overflow=hidden;rotatable=0;points=[[0,0.5],[1,0.5]];portConstraint=eastwest;" vertex="1" parent="CahL7AirRAyiVEByeSwV-1">
          <mxGeometry y="4590" width="400" height="20" as="geometry" />
        </mxCell>
        <mxCell id="CahL7AirRAyiVEByeSwV-356" value="struct task_delay_info      *delays;" style="text;strokeColor=default;fillColor=none;align=left;verticalAlign=middle;spacingLeft=4;spacingRight=4;overflow=hidden;rotatable=0;points=[[0,0.5],[1,0.5]];portConstraint=eastwest;" vertex="1" parent="CahL7AirRAyiVEByeSwV-1">
          <mxGeometry y="4610" width="400" height="20" as="geometry" />
        </mxCell>
        <mxCell id="CahL7AirRAyiVEByeSwV-358" value="int             make_it_fail;" style="text;strokeColor=default;fillColor=none;align=left;verticalAlign=middle;spacingLeft=4;spacingRight=4;overflow=hidden;rotatable=0;points=[[0,0.5],[1,0.5]];portConstraint=eastwest;" vertex="1" parent="CahL7AirRAyiVEByeSwV-1">
          <mxGeometry y="4630" width="400" height="20" as="geometry" />
        </mxCell>
        <mxCell id="CahL7AirRAyiVEByeSwV-359" value="unsigned int            fail_nth;" style="text;strokeColor=default;fillColor=none;align=left;verticalAlign=middle;spacingLeft=4;spacingRight=4;overflow=hidden;rotatable=0;points=[[0,0.5],[1,0.5]];portConstraint=eastwest;" vertex="1" parent="CahL7AirRAyiVEByeSwV-1">
          <mxGeometry y="4650" width="400" height="20" as="geometry" />
        </mxCell>
        <mxCell id="CahL7AirRAyiVEByeSwV-361" value="int             nr_dirtied;" style="text;strokeColor=default;fillColor=none;align=left;verticalAlign=middle;spacingLeft=4;spacingRight=4;overflow=hidden;rotatable=0;points=[[0,0.5],[1,0.5]];portConstraint=eastwest;" vertex="1" parent="CahL7AirRAyiVEByeSwV-1">
          <mxGeometry y="4670" width="400" height="20" as="geometry" />
        </mxCell>
        <mxCell id="CahL7AirRAyiVEByeSwV-362" value="int             nr_dirtied_pause;" style="text;strokeColor=default;fillColor=none;align=left;verticalAlign=middle;spacingLeft=4;spacingRight=4;overflow=hidden;rotatable=0;points=[[0,0.5],[1,0.5]];portConstraint=eastwest;" vertex="1" parent="CahL7AirRAyiVEByeSwV-1">
          <mxGeometry y="4690" width="400" height="20" as="geometry" />
        </mxCell>
        <mxCell id="CahL7AirRAyiVEByeSwV-363" value="unsigned long           dirty_paused_when;" style="text;strokeColor=default;fillColor=none;align=left;verticalAlign=middle;spacingLeft=4;spacingRight=4;overflow=hidden;rotatable=0;points=[[0,0.5],[1,0.5]];portConstraint=eastwest;" vertex="1" parent="CahL7AirRAyiVEByeSwV-1">
          <mxGeometry y="4710" width="400" height="20" as="geometry" />
        </mxCell>
        <mxCell id="CahL7AirRAyiVEByeSwV-364" value="int             latency_record_count;" style="text;strokeColor=default;fillColor=none;align=left;verticalAlign=middle;spacingLeft=4;spacingRight=4;overflow=hidden;rotatable=0;points=[[0,0.5],[1,0.5]];portConstraint=eastwest;" vertex="1" parent="CahL7AirRAyiVEByeSwV-1">
          <mxGeometry y="4730" width="400" height="20" as="geometry" />
        </mxCell>
        <mxCell id="CahL7AirRAyiVEByeSwV-365" value="struct latency_record       latency_record[LT_SAVECOUNT];" style="text;strokeColor=default;fillColor=none;align=left;verticalAlign=middle;spacingLeft=4;spacingRight=4;overflow=hidden;rotatable=0;points=[[0,0.5],[1,0.5]];portConstraint=eastwest;" vertex="1" parent="CahL7AirRAyiVEByeSwV-1">
          <mxGeometry y="4750" width="400" height="20" as="geometry" />
        </mxCell>
        <mxCell id="CahL7AirRAyiVEByeSwV-366" value="u64             timer_slack_ns;" style="text;strokeColor=default;fillColor=none;align=left;verticalAlign=middle;spacingLeft=4;spacingRight=4;overflow=hidden;rotatable=0;points=[[0,0.5],[1,0.5]];portConstraint=eastwest;" vertex="1" parent="CahL7AirRAyiVEByeSwV-1">
          <mxGeometry y="4770" width="400" height="20" as="geometry" />
        </mxCell>
        <mxCell id="CahL7AirRAyiVEByeSwV-367" value="u64             default_timer_slack_ns;" style="text;strokeColor=default;fillColor=none;align=left;verticalAlign=middle;spacingLeft=4;spacingRight=4;overflow=hidden;rotatable=0;points=[[0,0.5],[1,0.5]];portConstraint=eastwest;" vertex="1" parent="CahL7AirRAyiVEByeSwV-1">
          <mxGeometry y="4790" width="400" height="20" as="geometry" />
        </mxCell>
        <mxCell id="CahL7AirRAyiVEByeSwV-368" value="unsigned int            kasan_depth;" style="text;strokeColor=default;fillColor=none;align=left;verticalAlign=middle;spacingLeft=4;spacingRight=4;overflow=hidden;rotatable=0;points=[[0,0.5],[1,0.5]];portConstraint=eastwest;" vertex="1" parent="CahL7AirRAyiVEByeSwV-1">
          <mxGeometry y="4810" width="400" height="20" as="geometry" />
        </mxCell>
        <mxCell id="CahL7AirRAyiVEByeSwV-369" value="struct kcsan_ctx        kcsan_ctx;" style="text;strokeColor=default;fillColor=none;align=left;verticalAlign=middle;spacingLeft=4;spacingRight=4;overflow=hidden;rotatable=0;points=[[0,0.5],[1,0.5]];portConstraint=eastwest;" vertex="1" parent="CahL7AirRAyiVEByeSwV-1">
          <mxGeometry y="4830" width="400" height="20" as="geometry" />
        </mxCell>
        <mxCell id="CahL7AirRAyiVEByeSwV-370" value="struct irqtrace_events      kcsan_save_irqtrace;" style="text;strokeColor=default;fillColor=none;align=left;verticalAlign=middle;spacingLeft=4;spacingRight=4;overflow=hidden;rotatable=0;points=[[0,0.5],[1,0.5]];portConstraint=eastwest;" vertex="1" parent="CahL7AirRAyiVEByeSwV-1">
          <mxGeometry y="4850" width="400" height="20" as="geometry" />
        </mxCell>
        <mxCell id="CahL7AirRAyiVEByeSwV-371" value="int             kcsan_stack_depth;" style="text;strokeColor=default;fillColor=none;align=left;verticalAlign=middle;spacingLeft=4;spacingRight=4;overflow=hidden;rotatable=0;points=[[0,0.5],[1,0.5]];portConstraint=eastwest;" vertex="1" parent="CahL7AirRAyiVEByeSwV-1">
          <mxGeometry y="4870" width="400" height="20" as="geometry" />
        </mxCell>
        <mxCell id="CahL7AirRAyiVEByeSwV-372" value="struct kunit            *kunit_test;" style="text;strokeColor=default;fillColor=none;align=left;verticalAlign=middle;spacingLeft=4;spacingRight=4;overflow=hidden;rotatable=0;points=[[0,0.5],[1,0.5]];portConstraint=eastwest;" vertex="1" parent="CahL7AirRAyiVEByeSwV-1">
          <mxGeometry y="4890" width="400" height="20" as="geometry" />
        </mxCell>
        <mxCell id="CahL7AirRAyiVEByeSwV-373" value="int             curr_ret_stack;" style="text;strokeColor=default;fillColor=none;align=left;verticalAlign=middle;spacingLeft=4;spacingRight=4;overflow=hidden;rotatable=0;points=[[0,0.5],[1,0.5]];portConstraint=eastwest;" vertex="1" parent="CahL7AirRAyiVEByeSwV-1">
          <mxGeometry y="4910" width="400" height="20" as="geometry" />
        </mxCell>
        <mxCell id="CahL7AirRAyiVEByeSwV-374" value="int             curr_ret_depth;" style="text;strokeColor=default;fillColor=none;align=left;verticalAlign=middle;spacingLeft=4;spacingRight=4;overflow=hidden;rotatable=0;points=[[0,0.5],[1,0.5]];portConstraint=eastwest;" vertex="1" parent="CahL7AirRAyiVEByeSwV-1">
          <mxGeometry y="4930" width="400" height="20" as="geometry" />
        </mxCell>
        <mxCell id="CahL7AirRAyiVEByeSwV-375" value="struct ftrace_ret_stack     *ret_stack;" style="text;strokeColor=default;fillColor=none;align=left;verticalAlign=middle;spacingLeft=4;spacingRight=4;overflow=hidden;rotatable=0;points=[[0,0.5],[1,0.5]];portConstraint=eastwest;" vertex="1" parent="CahL7AirRAyiVEByeSwV-1">
          <mxGeometry y="4950" width="400" height="20" as="geometry" />
        </mxCell>
        <mxCell id="CahL7AirRAyiVEByeSwV-376" value="unsigned long long      ftrace_timestamp;" style="text;strokeColor=default;fillColor=none;align=left;verticalAlign=middle;spacingLeft=4;spacingRight=4;overflow=hidden;rotatable=0;points=[[0,0.5],[1,0.5]];portConstraint=eastwest;" vertex="1" parent="CahL7AirRAyiVEByeSwV-1">
          <mxGeometry y="4970" width="400" height="20" as="geometry" />
        </mxCell>
        <mxCell id="CahL7AirRAyiVEByeSwV-377" value="atomic_t            trace_overrun;" style="text;strokeColor=default;fillColor=none;align=left;verticalAlign=middle;spacingLeft=4;spacingRight=4;overflow=hidden;rotatable=0;points=[[0,0.5],[1,0.5]];portConstraint=eastwest;" vertex="1" parent="CahL7AirRAyiVEByeSwV-1">
          <mxGeometry y="4990" width="400" height="20" as="geometry" />
        </mxCell>
        <mxCell id="CahL7AirRAyiVEByeSwV-378" value="atomic_t            tracing_graph_pause;" style="text;strokeColor=default;fillColor=none;align=left;verticalAlign=middle;spacingLeft=4;spacingRight=4;overflow=hidden;rotatable=0;points=[[0,0.5],[1,0.5]];portConstraint=eastwest;" vertex="1" parent="CahL7AirRAyiVEByeSwV-1">
          <mxGeometry y="5010" width="400" height="20" as="geometry" />
        </mxCell>
        <mxCell id="CahL7AirRAyiVEByeSwV-379" value="unsigned long           trace;" style="text;strokeColor=default;fillColor=none;align=left;verticalAlign=middle;spacingLeft=4;spacingRight=4;overflow=hidden;rotatable=0;points=[[0,0.5],[1,0.5]];portConstraint=eastwest;" vertex="1" parent="CahL7AirRAyiVEByeSwV-1">
          <mxGeometry y="5030" width="400" height="20" as="geometry" />
        </mxCell>
        <mxCell id="CahL7AirRAyiVEByeSwV-380" value="unsigned long           trace_recursion;" style="text;strokeColor=default;fillColor=none;align=left;verticalAlign=middle;spacingLeft=4;spacingRight=4;overflow=hidden;rotatable=0;points=[[0,0.5],[1,0.5]];portConstraint=eastwest;" vertex="1" parent="CahL7AirRAyiVEByeSwV-1">
          <mxGeometry y="5050" width="400" height="20" as="geometry" />
        </mxCell>
        <mxCell id="CahL7AirRAyiVEByeSwV-381" value="unsigned int            kcov_mode;" style="text;strokeColor=default;fillColor=none;align=left;verticalAlign=middle;spacingLeft=4;spacingRight=4;overflow=hidden;rotatable=0;points=[[0,0.5],[1,0.5]];portConstraint=eastwest;" vertex="1" parent="CahL7AirRAyiVEByeSwV-1">
          <mxGeometry y="5070" width="400" height="20" as="geometry" />
        </mxCell>
        <mxCell id="CahL7AirRAyiVEByeSwV-382" value="unsigned int            kcov_size;" style="text;strokeColor=default;fillColor=none;align=left;verticalAlign=middle;spacingLeft=4;spacingRight=4;overflow=hidden;rotatable=0;points=[[0,0.5],[1,0.5]];portConstraint=eastwest;" vertex="1" parent="CahL7AirRAyiVEByeSwV-1">
          <mxGeometry y="5090" width="400" height="20" as="geometry" />
        </mxCell>
        <mxCell id="CahL7AirRAyiVEByeSwV-383" value="void                *kcov_area;" style="text;strokeColor=default;fillColor=none;align=left;verticalAlign=middle;spacingLeft=4;spacingRight=4;overflow=hidden;rotatable=0;points=[[0,0.5],[1,0.5]];portConstraint=eastwest;" vertex="1" parent="CahL7AirRAyiVEByeSwV-1">
          <mxGeometry y="5110" width="400" height="20" as="geometry" />
        </mxCell>
        <mxCell id="CahL7AirRAyiVEByeSwV-384" value="struct kcov         *kcov;" style="text;strokeColor=default;fillColor=none;align=left;verticalAlign=middle;spacingLeft=4;spacingRight=4;overflow=hidden;rotatable=0;points=[[0,0.5],[1,0.5]];portConstraint=eastwest;" vertex="1" parent="CahL7AirRAyiVEByeSwV-1">
          <mxGeometry y="5130" width="400" height="20" as="geometry" />
        </mxCell>
        <mxCell id="CahL7AirRAyiVEByeSwV-385" value="u64             kcov_handle;" style="text;strokeColor=default;fillColor=none;align=left;verticalAlign=middle;spacingLeft=4;spacingRight=4;overflow=hidden;rotatable=0;points=[[0,0.5],[1,0.5]];portConstraint=eastwest;" vertex="1" parent="CahL7AirRAyiVEByeSwV-1">
          <mxGeometry y="5150" width="400" height="20" as="geometry" />
        </mxCell>
        <mxCell id="CahL7AirRAyiVEByeSwV-386" value="int             kcov_sequence;" style="text;strokeColor=default;fillColor=none;align=left;verticalAlign=middle;spacingLeft=4;spacingRight=4;overflow=hidden;rotatable=0;points=[[0,0.5],[1,0.5]];portConstraint=eastwest;" vertex="1" parent="CahL7AirRAyiVEByeSwV-1">
          <mxGeometry y="5170" width="400" height="20" as="geometry" />
        </mxCell>
        <mxCell id="CahL7AirRAyiVEByeSwV-387" value="unsigned int            kcov_softirq;" style="text;strokeColor=default;fillColor=none;align=left;verticalAlign=middle;spacingLeft=4;spacingRight=4;overflow=hidden;rotatable=0;points=[[0,0.5],[1,0.5]];portConstraint=eastwest;" vertex="1" parent="CahL7AirRAyiVEByeSwV-1">
          <mxGeometry y="5190" width="400" height="20" as="geometry" />
        </mxCell>
        <mxCell id="CahL7AirRAyiVEByeSwV-388" value="struct mem_cgroup       *memcg_in_oom;" style="text;strokeColor=default;fillColor=none;align=left;verticalAlign=middle;spacingLeft=4;spacingRight=4;overflow=hidden;rotatable=0;points=[[0,0.5],[1,0.5]];portConstraint=eastwest;" vertex="1" parent="CahL7AirRAyiVEByeSwV-1">
          <mxGeometry y="5210" width="400" height="20" as="geometry" />
        </mxCell>
        <mxCell id="CahL7AirRAyiVEByeSwV-389" value="gfp_t               memcg_oom_gfp_mask;" style="text;strokeColor=default;fillColor=none;align=left;verticalAlign=middle;spacingLeft=4;spacingRight=4;overflow=hidden;rotatable=0;points=[[0,0.5],[1,0.5]];portConstraint=eastwest;" vertex="1" parent="CahL7AirRAyiVEByeSwV-1">
          <mxGeometry y="5230" width="400" height="20" as="geometry" />
        </mxCell>
        <mxCell id="CahL7AirRAyiVEByeSwV-390" value="int             memcg_oom_order;" style="text;strokeColor=default;fillColor=none;align=left;verticalAlign=middle;spacingLeft=4;spacingRight=4;overflow=hidden;rotatable=0;points=[[0,0.5],[1,0.5]];portConstraint=eastwest;" vertex="1" parent="CahL7AirRAyiVEByeSwV-1">
          <mxGeometry y="5250" width="400" height="20" as="geometry" />
        </mxCell>
        <mxCell id="CahL7AirRAyiVEByeSwV-391" value="unsigned int            memcg_nr_pages_over_high;" style="text;strokeColor=default;fillColor=none;align=left;verticalAlign=middle;spacingLeft=4;spacingRight=4;overflow=hidden;rotatable=0;points=[[0,0.5],[1,0.5]];portConstraint=eastwest;" vertex="1" parent="CahL7AirRAyiVEByeSwV-1">
          <mxGeometry y="5270" width="400" height="20" as="geometry" />
        </mxCell>
        <mxCell id="CahL7AirRAyiVEByeSwV-392" value="struct mem_cgroup       *active_memcg;" style="text;strokeColor=default;fillColor=none;align=left;verticalAlign=middle;spacingLeft=4;spacingRight=4;overflow=hidden;rotatable=0;points=[[0,0.5],[1,0.5]];portConstraint=eastwest;" vertex="1" parent="CahL7AirRAyiVEByeSwV-1">
          <mxGeometry y="5290" width="400" height="20" as="geometry" />
        </mxCell>
        <mxCell id="CahL7AirRAyiVEByeSwV-393" value="struct request_queue        *throttle_queue;" style="text;strokeColor=default;fillColor=none;align=left;verticalAlign=middle;spacingLeft=4;spacingRight=4;overflow=hidden;rotatable=0;points=[[0,0.5],[1,0.5]];portConstraint=eastwest;" vertex="1" parent="CahL7AirRAyiVEByeSwV-1">
          <mxGeometry y="5310" width="400" height="20" as="geometry" />
        </mxCell>
        <mxCell id="CahL7AirRAyiVEByeSwV-394" value="struct uprobe_task      *utask;" style="text;strokeColor=default;fillColor=none;align=left;verticalAlign=middle;spacingLeft=4;spacingRight=4;overflow=hidden;rotatable=0;points=[[0,0.5],[1,0.5]];portConstraint=eastwest;" vertex="1" parent="CahL7AirRAyiVEByeSwV-1">
          <mxGeometry y="5330" width="400" height="20" as="geometry" />
        </mxCell>
        <mxCell id="CahL7AirRAyiVEByeSwV-395" value="unsigned int            sequential_io;" style="text;strokeColor=default;fillColor=none;align=left;verticalAlign=middle;spacingLeft=4;spacingRight=4;overflow=hidden;rotatable=0;points=[[0,0.5],[1,0.5]];portConstraint=eastwest;" vertex="1" parent="CahL7AirRAyiVEByeSwV-1">
          <mxGeometry y="5350" width="400" height="20" as="geometry" />
        </mxCell>
        <mxCell id="CahL7AirRAyiVEByeSwV-396" value="unsigned int            sequential_io_avg;" style="text;strokeColor=default;fillColor=none;align=left;verticalAlign=middle;spacingLeft=4;spacingRight=4;overflow=hidden;rotatable=0;points=[[0,0.5],[1,0.5]];portConstraint=eastwest;" vertex="1" parent="CahL7AirRAyiVEByeSwV-1">
          <mxGeometry y="5370" width="400" height="20" as="geometry" />
        </mxCell>
        <mxCell id="CahL7AirRAyiVEByeSwV-397" value="struct kmap_ctrl        kmap_ctrl;" style="text;strokeColor=default;fillColor=none;align=left;verticalAlign=middle;spacingLeft=4;spacingRight=4;overflow=hidden;rotatable=0;points=[[0,0.5],[1,0.5]];portConstraint=eastwest;" vertex="1" parent="CahL7AirRAyiVEByeSwV-1">
          <mxGeometry y="5390" width="400" height="20" as="geometry" />
        </mxCell>
        <mxCell id="CahL7AirRAyiVEByeSwV-398" value="unsigned long           task_state_change;" style="text;strokeColor=default;fillColor=none;align=left;verticalAlign=middle;spacingLeft=4;spacingRight=4;overflow=hidden;rotatable=0;points=[[0,0.5],[1,0.5]];portConstraint=eastwest;" vertex="1" parent="CahL7AirRAyiVEByeSwV-1">
          <mxGeometry y="5410" width="400" height="20" as="geometry" />
        </mxCell>
        <mxCell id="CahL7AirRAyiVEByeSwV-399" value="unsigned long           saved_state_change;" style="text;strokeColor=default;fillColor=none;align=left;verticalAlign=middle;spacingLeft=4;spacingRight=4;overflow=hidden;rotatable=0;points=[[0,0.5],[1,0.5]];portConstraint=eastwest;" vertex="1" parent="CahL7AirRAyiVEByeSwV-1">
          <mxGeometry y="5430" width="400" height="20" as="geometry" />
        </mxCell>
        <mxCell id="CahL7AirRAyiVEByeSwV-400" value="int             pagefault_disabled;" style="text;strokeColor=default;fillColor=none;align=left;verticalAlign=middle;spacingLeft=4;spacingRight=4;overflow=hidden;rotatable=0;points=[[0,0.5],[1,0.5]];portConstraint=eastwest;" vertex="1" parent="CahL7AirRAyiVEByeSwV-1">
          <mxGeometry y="5450" width="400" height="20" as="geometry" />
        </mxCell>
        <mxCell id="CahL7AirRAyiVEByeSwV-401" value="struct task_struct      *oom_reaper_list;" style="text;strokeColor=default;fillColor=none;align=left;verticalAlign=middle;spacingLeft=4;spacingRight=4;overflow=hidden;rotatable=0;points=[[0,0.5],[1,0.5]];portConstraint=eastwest;" vertex="1" parent="CahL7AirRAyiVEByeSwV-1">
          <mxGeometry y="5470" width="400" height="20" as="geometry" />
        </mxCell>
        <mxCell id="CahL7AirRAyiVEByeSwV-402" value="struct timer_list       oom_reaper_timer;" style="text;strokeColor=default;fillColor=none;align=left;verticalAlign=middle;spacingLeft=4;spacingRight=4;overflow=hidden;rotatable=0;points=[[0,0.5],[1,0.5]];portConstraint=eastwest;" vertex="1" parent="CahL7AirRAyiVEByeSwV-1">
          <mxGeometry y="5490" width="400" height="20" as="geometry" />
        </mxCell>
        <mxCell id="CahL7AirRAyiVEByeSwV-403" value="struct vm_struct        *stack_vm_area;" style="text;strokeColor=default;fillColor=none;align=left;verticalAlign=middle;spacingLeft=4;spacingRight=4;overflow=hidden;rotatable=0;points=[[0,0.5],[1,0.5]];portConstraint=eastwest;" vertex="1" parent="CahL7AirRAyiVEByeSwV-1">
          <mxGeometry y="5510" width="400" height="20" as="geometry" />
        </mxCell>
        <mxCell id="CahL7AirRAyiVEByeSwV-404" value="refcount_t          stack_refcount;" style="text;strokeColor=default;fillColor=none;align=left;verticalAlign=middle;spacingLeft=4;spacingRight=4;overflow=hidden;rotatable=0;points=[[0,0.5],[1,0.5]];portConstraint=eastwest;" vertex="1" parent="CahL7AirRAyiVEByeSwV-1">
          <mxGeometry y="5530" width="400" height="20" as="geometry" />
        </mxCell>
        <mxCell id="CahL7AirRAyiVEByeSwV-405" value="int patch_state;" style="text;strokeColor=default;fillColor=none;align=left;verticalAlign=middle;spacingLeft=4;spacingRight=4;overflow=hidden;rotatable=0;points=[[0,0.5],[1,0.5]];portConstraint=eastwest;" vertex="1" parent="CahL7AirRAyiVEByeSwV-1">
          <mxGeometry y="5550" width="400" height="20" as="geometry" />
        </mxCell>
        <mxCell id="CahL7AirRAyiVEByeSwV-406" value="void                *security;" style="text;strokeColor=default;fillColor=none;align=left;verticalAlign=middle;spacingLeft=4;spacingRight=4;overflow=hidden;rotatable=0;points=[[0,0.5],[1,0.5]];portConstraint=eastwest;" vertex="1" parent="CahL7AirRAyiVEByeSwV-1">
          <mxGeometry y="5570" width="400" height="20" as="geometry" />
        </mxCell>
        <mxCell id="CahL7AirRAyiVEByeSwV-407" value="struct bpf_local_storage __rcu  *bpf_storage;" style="text;strokeColor=default;fillColor=none;align=left;verticalAlign=middle;spacingLeft=4;spacingRight=4;overflow=hidden;rotatable=0;points=[[0,0.5],[1,0.5]];portConstraint=eastwest;" vertex="1" parent="CahL7AirRAyiVEByeSwV-1">
          <mxGeometry y="5590" width="400" height="20" as="geometry" />
        </mxCell>
        <mxCell id="CahL7AirRAyiVEByeSwV-408" value="struct bpf_run_ctx      *bpf_ctx;" style="text;strokeColor=default;fillColor=none;align=left;verticalAlign=middle;spacingLeft=4;spacingRight=4;overflow=hidden;rotatable=0;points=[[0,0.5],[1,0.5]];portConstraint=eastwest;" vertex="1" parent="CahL7AirRAyiVEByeSwV-1">
          <mxGeometry y="5610" width="400" height="20" as="geometry" />
        </mxCell>
        <mxCell id="CahL7AirRAyiVEByeSwV-409" value="unsigned long           lowest_stack;" style="text;strokeColor=default;fillColor=none;align=left;verticalAlign=middle;spacingLeft=4;spacingRight=4;overflow=hidden;rotatable=0;points=[[0,0.5],[1,0.5]];portConstraint=eastwest;" vertex="1" parent="CahL7AirRAyiVEByeSwV-1">
          <mxGeometry y="5630" width="400" height="20" as="geometry" />
        </mxCell>
        <mxCell id="CahL7AirRAyiVEByeSwV-410" value="unsigned long           prev_lowest_stack;" style="text;strokeColor=default;fillColor=none;align=left;verticalAlign=middle;spacingLeft=4;spacingRight=4;overflow=hidden;rotatable=0;points=[[0,0.5],[1,0.5]];portConstraint=eastwest;" vertex="1" parent="CahL7AirRAyiVEByeSwV-1">
          <mxGeometry y="5650" width="400" height="20" as="geometry" />
        </mxCell>
        <mxCell id="CahL7AirRAyiVEByeSwV-411" value="void __user         *mce_vaddr;" style="text;strokeColor=default;fillColor=none;align=left;verticalAlign=middle;spacingLeft=4;spacingRight=4;overflow=hidden;rotatable=0;points=[[0,0.5],[1,0.5]];portConstraint=eastwest;" vertex="1" parent="CahL7AirRAyiVEByeSwV-1">
          <mxGeometry y="5670" width="400" height="20" as="geometry" />
        </mxCell>
        <mxCell id="CahL7AirRAyiVEByeSwV-412" value="__u64               mce_kflags;" style="text;strokeColor=default;fillColor=none;align=left;verticalAlign=middle;spacingLeft=4;spacingRight=4;overflow=hidden;rotatable=0;points=[[0,0.5],[1,0.5]];portConstraint=eastwest;" vertex="1" parent="CahL7AirRAyiVEByeSwV-1">
          <mxGeometry y="5690" width="400" height="20" as="geometry" />
        </mxCell>
        <mxCell id="CahL7AirRAyiVEByeSwV-413" value="u64             mce_addr;" style="text;strokeColor=default;fillColor=none;align=left;verticalAlign=middle;spacingLeft=4;spacingRight=4;overflow=hidden;rotatable=0;points=[[0,0.5],[1,0.5]];portConstraint=eastwest;" vertex="1" parent="CahL7AirRAyiVEByeSwV-1">
          <mxGeometry y="5710" width="400" height="20" as="geometry" />
        </mxCell>
        <mxCell id="CahL7AirRAyiVEByeSwV-414" value="__u64               mce_ripv : 1,&#xa;                 mce_whole_page : 1,&#xa;                 __mce_reserved : 62;" style="text;strokeColor=default;fillColor=none;align=left;verticalAlign=middle;spacingLeft=4;spacingRight=4;overflow=hidden;rotatable=0;points=[[0,0.5],[1,0.5]];portConstraint=eastwest;" vertex="1" parent="CahL7AirRAyiVEByeSwV-1">
          <mxGeometry y="5730" width="400" height="60" as="geometry" />
        </mxCell>
        <mxCell id="CahL7AirRAyiVEByeSwV-415" value="struct callback_head        mce_kill_me;" style="text;strokeColor=default;fillColor=none;align=left;verticalAlign=middle;spacingLeft=4;spacingRight=4;overflow=hidden;rotatable=0;points=[[0,0.5],[1,0.5]];portConstraint=eastwest;" vertex="1" parent="CahL7AirRAyiVEByeSwV-1">
          <mxGeometry y="5790" width="400" height="20" as="geometry" />
        </mxCell>
        <mxCell id="CahL7AirRAyiVEByeSwV-416" value="int             mce_count;" style="text;strokeColor=default;fillColor=none;align=left;verticalAlign=middle;spacingLeft=4;spacingRight=4;overflow=hidden;rotatable=0;points=[[0,0.5],[1,0.5]];portConstraint=eastwest;" vertex="1" parent="CahL7AirRAyiVEByeSwV-1">
          <mxGeometry y="5810" width="400" height="20" as="geometry" />
        </mxCell>
        <mxCell id="CahL7AirRAyiVEByeSwV-417" value="struct llist_head               kretprobe_instances;" style="text;strokeColor=default;fillColor=none;align=left;verticalAlign=middle;spacingLeft=4;spacingRight=4;overflow=hidden;rotatable=0;points=[[0,0.5],[1,0.5]];portConstraint=eastwest;labelBorderColor=none;" vertex="1" parent="CahL7AirRAyiVEByeSwV-1">
          <mxGeometry y="5830" width="400" height="20" as="geometry" />
        </mxCell>
        <mxCell id="CahL7AirRAyiVEByeSwV-418" value="struct llist_head               rethooks;" style="text;strokeColor=default;fillColor=none;align=left;verticalAlign=middle;spacingLeft=4;spacingRight=4;overflow=hidden;rotatable=0;points=[[0,0.5],[1,0.5]];portConstraint=eastwest;labelBorderColor=none;" vertex="1" parent="CahL7AirRAyiVEByeSwV-1">
          <mxGeometry y="5850" width="400" height="20" as="geometry" />
        </mxCell>
        <mxCell id="CahL7AirRAyiVEByeSwV-419" value="struct callback_head        l1d_flush_kill;" style="text;strokeColor=default;fillColor=none;align=left;verticalAlign=middle;spacingLeft=4;spacingRight=4;overflow=hidden;rotatable=0;points=[[0,0.5],[1,0.5]];portConstraint=eastwest;labelBorderColor=none;" vertex="1" parent="CahL7AirRAyiVEByeSwV-1">
          <mxGeometry y="5870" width="400" height="20" as="geometry" />
        </mxCell>
        <mxCell id="CahL7AirRAyiVEByeSwV-420" value="struct thread_struct        thread;" style="text;strokeColor=default;fillColor=none;align=left;verticalAlign=middle;spacingLeft=4;spacingRight=4;overflow=hidden;rotatable=0;points=[[0,0.5],[1,0.5]];portConstraint=eastwest;labelBorderColor=none;glass=0;sketch=0;" vertex="1" parent="CahL7AirRAyiVEByeSwV-1">
          <mxGeometry y="5890" width="400" height="20" as="geometry" />
        </mxCell>
        <mxCell id="CahL7AirRAyiVEByeSwV-24" value="" style="endArrow=open;html=1;endSize=12;startArrow=diamondThin;startSize=14;startFill=0;edgeStyle=orthogonalEdgeStyle;align=left;verticalAlign=bottom;rounded=0;exitX=0;exitY=0.5;exitDx=0;exitDy=0;entryX=0.5;entryY=0;entryDx=0;entryDy=0;" edge="1" parent="CahL7AirRAyiVEByeSwV-1" source="CahL7AirRAyiVEByeSwV-23" target="CahL7AirRAyiVEByeSwV-1">
          <mxGeometry x="-0.8008" relative="1" as="geometry">
            <mxPoint x="-20" y="320" as="sourcePoint" />
            <mxPoint x="-20" y="10" as="targetPoint" />
            <Array as="points">
              <mxPoint x="-20" y="280" />
              <mxPoint x="-20" y="-20" />
              <mxPoint x="200" y="-20" />
            </Array>
            <mxPoint as="offset" />
          </mxGeometry>
        </mxCell>
        <mxCell id="CahL7AirRAyiVEByeSwV-12" value="" style="endArrow=open;html=1;endSize=12;startArrow=diamondThin;startSize=14;startFill=1;edgeStyle=orthogonalEdgeStyle;align=left;verticalAlign=bottom;rounded=0;exitX=1;exitY=0.5;exitDx=0;exitDy=0;" edge="1" parent="1" source="CahL7AirRAyiVEByeSwV-2">
          <mxGeometry x="-1" y="3" relative="1" as="geometry">
            <mxPoint x="280" y="80" as="sourcePoint" />
            <mxPoint x="580" y="80" as="targetPoint" />
          </mxGeometry>
        </mxCell>
        <mxCell id="CahL7AirRAyiVEByeSwV-20" value="" style="endArrow=open;html=1;endSize=12;startArrow=diamondThin;startSize=14;startFill=1;edgeStyle=orthogonalEdgeStyle;align=left;verticalAlign=bottom;rounded=0;exitX=1;exitY=0.5;exitDx=0;exitDy=0;" edge="1" parent="1" source="CahL7AirRAyiVEByeSwV-19">
          <mxGeometry x="-1" y="3" relative="1" as="geometry">
            <mxPoint x="290" y="260" as="sourcePoint" />
            <mxPoint x="550" y="260" as="targetPoint" />
          </mxGeometry>
        </mxCell>
        <mxCell id="CahL7AirRAyiVEByeSwV-37" value="" style="endArrow=open;html=1;endSize=12;startArrow=diamondThin;startSize=14;startFill=1;edgeStyle=orthogonalEdgeStyle;align=left;verticalAlign=bottom;rounded=0;exitX=1;exitY=0.5;exitDx=0;exitDy=0;" edge="1" parent="1" source="CahL7AirRAyiVEByeSwV-32">
          <mxGeometry x="-1" y="3" relative="1" as="geometry">
            <mxPoint x="300" y="480" as="sourcePoint" />
            <mxPoint x="530" y="480" as="targetPoint" />
          </mxGeometry>
        </mxCell>
        <mxCell id="CahL7AirRAyiVEByeSwV-38" value="" style="endArrow=open;html=1;endSize=12;startArrow=diamondThin;startSize=14;startFill=1;edgeStyle=orthogonalEdgeStyle;align=left;verticalAlign=bottom;rounded=0;exitX=1;exitY=0.5;exitDx=0;exitDy=0;" edge="1" parent="1" source="CahL7AirRAyiVEByeSwV-33">
          <mxGeometry x="-1" y="3" relative="1" as="geometry">
            <mxPoint x="300" y="500" as="sourcePoint" />
            <mxPoint x="550" y="500" as="targetPoint" />
          </mxGeometry>
        </mxCell>
        <mxCell id="CahL7AirRAyiVEByeSwV-39" value="" style="endArrow=open;html=1;endSize=12;startArrow=diamondThin;startSize=14;startFill=1;edgeStyle=orthogonalEdgeStyle;align=left;verticalAlign=bottom;rounded=0;exitX=1;exitY=0.5;exitDx=0;exitDy=0;" edge="1" parent="1" source="CahL7AirRAyiVEByeSwV-34">
          <mxGeometry x="-1" y="3" relative="1" as="geometry">
            <mxPoint x="290" y="520" as="sourcePoint" />
            <mxPoint x="550" y="520" as="targetPoint" />
          </mxGeometry>
        </mxCell>
        <mxCell id="CahL7AirRAyiVEByeSwV-42" value="" style="endArrow=open;html=1;endSize=12;startArrow=diamondThin;startSize=14;startFill=0;edgeStyle=orthogonalEdgeStyle;align=left;verticalAlign=bottom;rounded=0;exitX=1;exitY=0.5;exitDx=0;exitDy=0;" edge="1" parent="1" source="CahL7AirRAyiVEByeSwV-35">
          <mxGeometry x="-1" y="3" relative="1" as="geometry">
            <mxPoint x="300" y="540" as="sourcePoint" />
            <mxPoint x="580" y="540" as="targetPoint" />
          </mxGeometry>
        </mxCell>
        <mxCell id="CahL7AirRAyiVEByeSwV-43" value="" style="endArrow=open;html=1;endSize=12;startArrow=diamondThin;startSize=14;startFill=0;edgeStyle=orthogonalEdgeStyle;align=left;verticalAlign=bottom;rounded=0;exitX=1;exitY=0.5;exitDx=0;exitDy=0;" edge="1" parent="1" source="CahL7AirRAyiVEByeSwV-49">
          <mxGeometry x="-1" y="3" relative="1" as="geometry">
            <mxPoint x="290" y="620" as="sourcePoint" />
            <mxPoint x="530" y="620" as="targetPoint" />
          </mxGeometry>
        </mxCell>
        <mxCell id="CahL7AirRAyiVEByeSwV-46" value="" style="endArrow=open;html=1;endSize=12;startArrow=diamondThin;startSize=14;startFill=1;edgeStyle=orthogonalEdgeStyle;align=left;verticalAlign=bottom;rounded=0;exitX=1;exitY=0.5;exitDx=0;exitDy=0;" edge="1" parent="1" source="CahL7AirRAyiVEByeSwV-45">
          <mxGeometry x="-1" y="3" relative="1" as="geometry">
            <mxPoint x="290" y="560" as="sourcePoint" />
            <mxPoint x="560" y="560" as="targetPoint" />
          </mxGeometry>
        </mxCell>
        <mxCell id="CahL7AirRAyiVEByeSwV-51" value="" style="endArrow=open;html=1;endSize=12;startArrow=diamondThin;startSize=14;startFill=1;edgeStyle=orthogonalEdgeStyle;align=left;verticalAlign=bottom;rounded=0;exitX=1;exitY=0.5;exitDx=0;exitDy=0;" edge="1" parent="1" source="CahL7AirRAyiVEByeSwV-50">
          <mxGeometry x="-1" y="3" relative="1" as="geometry">
            <mxPoint x="340" y="640" as="sourcePoint" />
            <mxPoint x="550" y="640" as="targetPoint" />
          </mxGeometry>
        </mxCell>
        <mxCell id="CahL7AirRAyiVEByeSwV-53" value="" style="endArrow=open;html=1;endSize=12;startArrow=diamondThin;startSize=14;startFill=1;edgeStyle=orthogonalEdgeStyle;align=left;verticalAlign=bottom;rounded=0;exitX=1;exitY=0.5;exitDx=0;exitDy=0;" edge="1" parent="1" source="CahL7AirRAyiVEByeSwV-52">
          <mxGeometry x="-1" y="3" relative="1" as="geometry">
            <mxPoint x="330" y="660" as="sourcePoint" />
            <mxPoint x="490" y="660" as="targetPoint" />
          </mxGeometry>
        </mxCell>
        <mxCell id="CahL7AirRAyiVEByeSwV-55" value="" style="endArrow=open;html=1;endSize=12;startArrow=diamondThin;startSize=14;startFill=1;edgeStyle=orthogonalEdgeStyle;align=left;verticalAlign=bottom;rounded=0;exitX=1;exitY=0.5;exitDx=0;exitDy=0;" edge="1" parent="1" source="CahL7AirRAyiVEByeSwV-54">
          <mxGeometry x="-1" y="3" relative="1" as="geometry">
            <mxPoint x="330" y="680" as="sourcePoint" />
            <mxPoint x="500" y="680" as="targetPoint" />
          </mxGeometry>
        </mxCell>
        <mxCell id="CahL7AirRAyiVEByeSwV-57" value="" style="endArrow=open;html=1;endSize=12;startArrow=diamondThin;startSize=14;startFill=1;edgeStyle=orthogonalEdgeStyle;align=left;verticalAlign=bottom;rounded=0;exitX=1;exitY=0.5;exitDx=0;exitDy=0;" edge="1" parent="1" source="CahL7AirRAyiVEByeSwV-56">
          <mxGeometry x="-1" y="3" relative="1" as="geometry">
            <mxPoint x="335" y="700" as="sourcePoint" />
            <mxPoint x="515" y="700" as="targetPoint" />
          </mxGeometry>
        </mxCell>
        <mxCell id="CahL7AirRAyiVEByeSwV-64" value="" style="endArrow=open;html=1;endSize=12;startArrow=diamondThin;startSize=14;startFill=0;edgeStyle=orthogonalEdgeStyle;align=left;verticalAlign=bottom;rounded=0;exitX=1;exitY=0.5;exitDx=0;exitDy=0;" edge="1" parent="1" source="CahL7AirRAyiVEByeSwV-61">
          <mxGeometry x="-1" y="3" relative="1" as="geometry">
            <mxPoint x="330" y="780" as="sourcePoint" />
            <mxPoint x="480" y="780" as="targetPoint" />
          </mxGeometry>
        </mxCell>
        <mxCell id="CahL7AirRAyiVEByeSwV-65" value="" style="endArrow=open;html=1;endSize=12;startArrow=diamondThin;startSize=14;startFill=0;edgeStyle=orthogonalEdgeStyle;align=left;verticalAlign=bottom;rounded=0;exitX=1;exitY=0.5;exitDx=0;exitDy=0;" edge="1" parent="1" source="CahL7AirRAyiVEByeSwV-62">
          <mxGeometry x="-1" y="3" relative="1" as="geometry">
            <mxPoint x="330" y="800" as="sourcePoint" />
            <mxPoint x="490" y="800" as="targetPoint" />
          </mxGeometry>
        </mxCell>
        <mxCell id="CahL7AirRAyiVEByeSwV-66" value="" style="endArrow=open;html=1;endSize=12;startArrow=diamondThin;startSize=14;startFill=1;edgeStyle=orthogonalEdgeStyle;align=left;verticalAlign=bottom;rounded=0;exitX=1;exitY=0.5;exitDx=0;exitDy=0;" edge="1" parent="1" source="CahL7AirRAyiVEByeSwV-63">
          <mxGeometry x="-1" y="3" relative="1" as="geometry">
            <mxPoint x="328" y="820" as="sourcePoint" />
            <mxPoint x="490" y="820" as="targetPoint" />
          </mxGeometry>
        </mxCell>
        <mxCell id="CahL7AirRAyiVEByeSwV-73" value="" style="endArrow=open;html=1;endSize=12;startArrow=diamondThin;startSize=14;startFill=1;edgeStyle=orthogonalEdgeStyle;align=left;verticalAlign=bottom;rounded=0;exitX=1;exitY=0.5;exitDx=0;exitDy=0;" edge="1" parent="1" source="CahL7AirRAyiVEByeSwV-71">
          <mxGeometry x="-1" y="3" relative="1" as="geometry">
            <mxPoint x="330" y="920" as="sourcePoint" />
            <mxPoint x="500" y="920" as="targetPoint" />
          </mxGeometry>
        </mxCell>
        <mxCell id="CahL7AirRAyiVEByeSwV-74" value="" style="endArrow=open;html=1;endSize=12;startArrow=diamondThin;startSize=14;startFill=1;edgeStyle=orthogonalEdgeStyle;align=left;verticalAlign=bottom;rounded=0;exitX=1;exitY=0.5;exitDx=0;exitDy=0;" edge="1" parent="1" source="CahL7AirRAyiVEByeSwV-72">
          <mxGeometry x="-1" y="3" relative="1" as="geometry">
            <mxPoint x="340" y="940" as="sourcePoint" />
            <mxPoint x="510" y="940" as="targetPoint" />
          </mxGeometry>
        </mxCell>
        <mxCell id="CahL7AirRAyiVEByeSwV-76" value="" style="endArrow=open;html=1;endSize=12;startArrow=diamondThin;startSize=14;startFill=0;edgeStyle=orthogonalEdgeStyle;align=left;verticalAlign=bottom;rounded=0;exitX=1;exitY=0.5;exitDx=0;exitDy=0;" edge="1" parent="1" source="CahL7AirRAyiVEByeSwV-75">
          <mxGeometry x="-1" y="3" relative="1" as="geometry">
            <mxPoint x="340" y="960" as="sourcePoint" />
            <mxPoint x="510" y="960" as="targetPoint" />
          </mxGeometry>
        </mxCell>
        <mxCell id="CahL7AirRAyiVEByeSwV-82" value="" style="endArrow=open;html=1;endSize=12;startArrow=diamondThin;startSize=14;startFill=1;edgeStyle=orthogonalEdgeStyle;align=left;verticalAlign=bottom;rounded=0;exitX=1;exitY=0.5;exitDx=0;exitDy=0;" edge="1" parent="1" source="CahL7AirRAyiVEByeSwV-81">
          <mxGeometry x="-1" y="3" relative="1" as="geometry">
            <mxPoint x="330" y="1060" as="sourcePoint" />
            <mxPoint x="520" y="1060" as="targetPoint" />
          </mxGeometry>
        </mxCell>
        <mxCell id="CahL7AirRAyiVEByeSwV-86" value="" style="endArrow=open;html=1;endSize=12;startArrow=diamondThin;startSize=14;startFill=1;edgeStyle=orthogonalEdgeStyle;align=left;verticalAlign=bottom;rounded=0;exitX=1;exitY=0.5;exitDx=0;exitDy=0;" edge="1" parent="1" source="CahL7AirRAyiVEByeSwV-85">
          <mxGeometry x="-1" y="3" relative="1" as="geometry">
            <mxPoint x="330" y="1120" as="sourcePoint" />
            <mxPoint x="520" y="1120" as="targetPoint" />
          </mxGeometry>
        </mxCell>
        <mxCell id="CahL7AirRAyiVEByeSwV-89" value="" style="endArrow=open;html=1;endSize=12;startArrow=diamondThin;startSize=14;startFill=1;edgeStyle=orthogonalEdgeStyle;align=left;verticalAlign=bottom;rounded=0;exitX=1;exitY=0.5;exitDx=0;exitDy=0;" edge="1" parent="1" source="CahL7AirRAyiVEByeSwV-88">
          <mxGeometry x="-1" y="3" relative="1" as="geometry">
            <mxPoint x="330" y="1160" as="sourcePoint" />
            <mxPoint x="530" y="1160" as="targetPoint" />
          </mxGeometry>
        </mxCell>
        <mxCell id="CahL7AirRAyiVEByeSwV-349" value="1" style="endArrow=open;html=1;endSize=12;startArrow=diamondThin;startSize=14;startFill=1;edgeStyle=orthogonalEdgeStyle;align=left;verticalAlign=bottom;rounded=0;exitX=1;exitY=0.5;exitDx=0;exitDy=0;" edge="1" parent="1" source="CahL7AirRAyiVEByeSwV-347">
          <mxGeometry x="-1" y="3" relative="1" as="geometry">
            <mxPoint x="450" y="4600" as="sourcePoint" />
            <mxPoint x="530" y="4600" as="targetPoint" />
          </mxGeometry>
        </mxCell>
        <mxCell id="CahL7AirRAyiVEByeSwV-350" value="union" style="swimlane;fontStyle=0;childLayout=stackLayout;horizontal=1;startSize=30;fillColor=none;horizontalStack=0;resizeParent=1;resizeParentMax=0;resizeLast=0;collapsible=1;marginBottom=0;" vertex="1" parent="1">
          <mxGeometry x="530" y="4590" width="140" height="70" as="geometry" />
        </mxCell>
        <mxCell id="CahL7AirRAyiVEByeSwV-351" value="refcount_t      rcu_users;" style="text;strokeColor=default;fillColor=none;align=left;verticalAlign=middle;spacingLeft=4;spacingRight=4;overflow=hidden;rotatable=0;points=[[0,0.5],[1,0.5]];portConstraint=eastwest;" vertex="1" parent="CahL7AirRAyiVEByeSwV-350">
          <mxGeometry y="30" width="140" height="20" as="geometry" />
        </mxCell>
        <mxCell id="CahL7AirRAyiVEByeSwV-352" value="struct rcu_head     rcu;" style="text;strokeColor=default;fillColor=none;align=left;verticalAlign=middle;spacingLeft=4;spacingRight=4;overflow=hidden;rotatable=0;points=[[0,0.5],[1,0.5]];portConstraint=eastwest;" vertex="1" parent="CahL7AirRAyiVEByeSwV-350">
          <mxGeometry y="50" width="140" height="20" as="geometry" />
        </mxCell>
      </root>
    </mxGraphModel>
  </diagram>
</mxfile>
